<svg width="48" height="48" inkscape:version="1.1.1 (3bf5ae0d25, 2021-09-20)" sodipodi:docname="ankerIcon.svg" version="1.1" viewBox="0 0 12.7 12.7" xmlns="http://www.w3.org/2000/svg" xmlns:inkscape="http://www.inkscape.org/namespaces/inkscape" xmlns:sodipodi="http://sodipodi.sourceforge.net/DTD/sodipodi-0.dtd">
 <sodipodi:namedview bordercolor="#111111" borderopacity="1" inkscape:current-layer="layer1" inkscape:cx="221.31318" inkscape:cy="196.74958" inkscape:document-units="mm" inkscape:pagecheckerboard="1" inkscape:pageopacity="0" inkscape:pageshadow="0" inkscape:window-height="1009" inkscape:window-maximized="1" inkscape:window-width="1920" inkscape:window-x="1912" inkscape:window-y="-8" inkscape:zoom="2.0762433" pagecolor="#ffffff" showgrid="false" units="px"/>
 <g inkscape:groupmode="layer" inkscape:label="Ebene 1">
  <g transform="matrix(.096232 0 0 .072105 -31.318 -41.052)">
   <path d="m400.25 641.08c-0.24218-0.27734-0.53125-0.0195 0 0m18.117 1.8008c0.32031 0.21875 0.67969-0.1914 0 0m38.613 69.699v-25.641c-6.7031 5.832-13.391 11.652-20.09 17.473 2.5273 0.96094 5.0664 1.918 7.5976 2.8789 0.74219 0.26953 0.94922 1.0586 0.44141 1.6719-5.3203 6.3086-12.883 11.977-20.922 14.098-7.0781 1.8711-14.961 0.83984-19.16-5.6094-4.1094-6.3203-5.2891-14.52-6.1484-21.859-1.4922-12.801-1.4492-25.961-0.42187-38.812 0.043-0.48828 0.42968-1.0469 1-1 5.4023 0.53125 10.691 0.49219 16.102 0.36328 2.3008-0.0508 1.9102 0.27734 2.2617-2.0703 0.11719-0.85938 0.25-1.7227 0.36719-2.582 0.0625-0.39063 0.58203-0.78907 0.97265-0.73828 1.0195 0.14062 2.0391 0.25781 3.0664 0.33984 2.1523 0.16797 2.4726 0.48047 2.9102-1.6016 0.97266-4.5508-2.5195-3.0274-5.5469-2.7891-0.58203 0.0391-0.95313-0.5-1-1-0.0898-0.92187-0.16016-1.8398-0.26172-2.75-0.0195 0.0117-0.0312 0.0117-0.0508 0.0195-1.6172 0.60156-4.6797 0-6.418 0-4.0703 0.0117-8.1406 0.0117-12.199 0.0117-0.5625 0-0.99219-0.46093-1-1-0.14062-4.6523-0.22265-9.3398 0-13.992 0.0781-1.5781-0.0703-3.9297 0.70703-5.3984 1.2305-2.332 4.4805-2.4805 6.5898-3.4805 8.3906-3.9414 12.633-15.469 9.9023-24.102-1.5195-4.8203-5.0508-8.6172-9.3906-11.078-8.4297-4.7695-20.109-4.9492-28.191 0.66797-4.6875 3.2734-7.5977 8.3633-8.4375 13.98-0.80078 5.3711 0.91016 10.512 4.0781 14.852 1.9492 2.668 4.4922 5.0508 7.6211 6.2383 1.2812 0.49219 2.7812 0.5625 3.9375 1.3594 2.8125 1.9336 2.2109 6.4219 2.2812 9.3906 0.0898 3.8516 0.0508 7.7109-0.0703 11.562-0.0195 0.53907-0.44922 1-1 1-4.0703 0-8.1406 0-12.211-0.0117-1.9766 0-4.457 0.37109-6.4375 0.0195-0.0508 0.90234-0.19922 1.8125-0.28906 2.7109-0.0508 0.5-0.42188 1.0391-1 1-1.1914-0.10156-2.4219-0.30078-3.6211-0.28906-2.0703 8e-3 -2.4609 0.55078-1.9297 3.0781 0.46875 2.2617 1.2578 1.7617 3.4492 1.5508 0.85157-0.0781 1.6914-0.17969 2.5391-0.28906 0.39062-0.0508 0.91015 0.34765 0.96093 0.73828 0.14844 1 0.19141 2.082 0.44922 3.0625 0.55078 2.0976-0.0586 1.5273 2.1797 1.5898 5.4219 0.13672 10.711 0.16797 16.109-0.36328 0.57032-0.0469 0.96094 0.51172 1 1 0.42188 5.2617 0.58204 10.543 0.6211 15.812 0.082 8.5898-0.19922 17.23-1.3984 25.738-0.97266 6.9492-2.3398 15.09-6.9414 20.691-10.551 12.871-31.039-0.69141-38.941-10.059-0.50781-0.61328-0.28906-1.4023 0.4414-1.6719 2.5508-0.96875 5.1016-1.9297 7.6602-2.8984-6.7188-6.2031-13.43-12.402-20.141-18.602v26.789c1.4102-0.51953 2.8203-1.0273 4.2305-1.5391 0.67188-0.25 1.1992 0.37109 1.2695 0.96094 0.97265 8.7188 8.9102 17.141 15.922 22.07 7.5781 5.3281 16.801 9.1797 25.898 10.84 5.8789 1.0781 12.582 2.2891 16.66 6.9883 4.082-4.6875 10.789-5.9492 16.672-6.9883 9.0977-1.6211 18.32-5.5312 25.898-10.84 7.0117-4.9102 14.941-13.371 15.922-22.07 0.0586-0.58985 0.58985-1.2109 1.2578-0.96094 1.4102 0.51172 2.832 1.0195 4.2422 1.5391m2-27.828v29.25c0 0.60937-0.65234 1.1875-1.2734 0.96875-1.4766-0.53907-2.957-1.0781-4.4375-1.6211-1.3516 7.4219-6.8711 14.312-12.332 19.043-7.1172 6.1797-15.848 10.25-24.809 12.98-7.25 2.1992-17.5 1.8398-22.27 8.6367-0.44922 0.64062-1.2812 0.64062-1.7305 0-4.7812-6.7969-15.031-6.4375-22.27-8.6367-8.9688-2.7305-17.691-6.8008-24.82-12.98-5.4609-4.7227-10.969-11.621-12.332-19.043-1.4766 0.54297-2.957 1.082-4.4375 1.6211-0.62109 0.21875-1.2617-0.35938-1.2617-0.96875v-30.5c0-0.89063 1.082-1.2812 1.6992-0.71094 7.6719 7.0898 15.34 14.172 23 21.25 0.60157 0.55859 0.23047 1.4219-0.4375 1.6797-2.6016 0.98046-5.2109 1.9688-7.8203 2.9492 5.7188 6.3828 13.879 12.18 22.43 13.109 19.59 2.1328 19.84-25.398 20.32-38.777 0.25781-7.0508 0.16797-14.121-0.17969-21.172-0.0508-0.89062 0.30079-4-0.28906-4.7188 0.46875 0.57031-5.4414 1.1484-6.5898 1.1797-3.8008 0.10156-7.5938-0.0508-11.383-0.35938-0.39844-0.0312-0.89063-0.28125-0.96094-0.74218-0.14844-1.0078-0.37891-2.0391-0.44922-3.0586-0.0195-0.3789-0.0586-0.89844-0.16016-1.3281-2.1602-0.0625-4.2891 0.67968-6.4883 0.23828-0.42187-0.0781-0.74219-0.55078-0.73047-0.96094 0.0508-2.3008 0.10157-4.5977 0.14844-6.8984 0.0117-0.5 0.45313-1.0391 1-1 1.3398 0.10938 3.9531 0.78125 5.5625 0.6211 0.0508-0.19141 0.0898-0.49219 0.0781-0.97266-0.0274-0.57812 0.12109-1.2695 0.17968-1.8594 0.0508-0.53907 0.42188-1 1-1h8.8125c2.1797 0.0117 4.3477 0.0117 6.5274 0.0117 0.74218 0 2.3008-0.29296 3.25-0.13281 0.0195-0.16797 0.043-0.33984 0.0195-0.46875-0.28906-1.8398 0.0703-4.0078 0.0703-5.8789 0-2.3203-8e-3 -4.6524-0.13672-6.9727-0.17187-3.0898 0.0899-4.0977-3.3828-5.5781-8.9805-3.8594-15.73-12.539-14.508-22.859 0.78906-6.6719 4.1992-12.73 9.8398-16.449 10.367-6.8398 26.168-5.3398 35.008 3.4102 4.7109 4.668 6.8203 11.258 5.8516 17.809-0.87891 5.8594-4.1016 11.738-8.832 15.359-1.8789 1.4414-3.5078 1.8398-5.5781 2.7305-3.3984 1.4609-3.1602 2.1016-3.3516 5.1406-0.25 3.9609-0.1875 7.9609-0.11719 11.93 8e-3 0.67968 0.0273 1.3711 0.0469 2.0586 0.19141-8e-3 0.4336-0.0391 0.76172-0.0977 5.5-1.0703 12.191-0.0117 17.828-0.0117 0.58203 0 0.9414 0.46093 1 1 0.0625 0.60937 0.18359 1.25 0.18359 1.8594 0 0.48047 0.0391 0.79297 0.0781 0.99219 1.6484 0.1875 4.0703-0.51953 5.5586-0.64063 0.55078-0.0391 0.99219 0.5 1 1 0.0508 2.3008 0.10156 4.5977 0.15234 6.8984 8e-3 0.41016-0.32031 0.88281-0.73046 0.96094-2.1914 0.4414-4.3203-0.30078-6.4688-0.23828v0.0273c-0.0625 0.58984-0.17188 1.1797-0.26172 1.7812-0.1211 0.85938-0.25 1.7188-0.3711 2.5781-0.0703 0.45312-0.57031 0.71093-0.96875 0.74218-4.7305 0.37891-9.4688 0.50782-14.211 0.23828-0.25782-0.0195-3.3203-0.46875-3.7774-1 8e-3 0.13282 0.0274 0.26954-0.0117 0.33985-0.78906 1.332-0.28906 4.9805-0.35156 6.4805-0.63672 15.352-1.168 32.602 4.1797 47.223 1.1523 3.1289 2.793 6.6367 5.6211 8.5977 4.3711 3.0391 10.82 2.3789 15.57 0.78125 6.5508-2.2109 12.652-6.7422 17.289-11.91-2.5977-0.99218-5.207-1.9805-7.8203-2.9609-0.17968-0.0703-0.30859-0.17969-0.41015-0.30079-0.36719-0.32812-0.5-0.86718-0.0899-1.2969 0.082-0.13281 0.19141-0.23047 0.32032-0.30078 7.582-6.5898 15.16-13.191 22.742-19.781 0.64063-0.55078 1.7109-0.19922 1.7109 0.71094"/>
   <path d="m390.82 614.63c8.2695 0.85938 16.91-6.7578 15.809-15.32-1.0195-7.9883-9.9414-11.551-17.051-10.281-13.621 3.6016-13.559 24.062 1.2422 25.602m66.16 72.309v25.641c-1.4102-0.51953-2.832-1.0273-4.2422-1.5391-0.66796-0.25-1.1992 0.37109-1.2578 0.96094-0.98047 8.6992-8.9102 17.16-15.922 22.07-7.5781 5.3086-16.801 9.2188-25.898 10.84-5.8828 1.0391-12.59 2.3008-16.672 6.9883-4.0781-4.6992-10.781-5.9102-16.66-6.9883-9.0977-1.6602-18.32-5.5117-25.898-10.84-7.0117-4.9297-14.949-13.352-15.922-22.07-0.0703-0.58985-0.59766-1.2109-1.2695-0.96094-1.4102 0.51172-2.8203 1.0195-4.2305 1.5391v-26.789c6.7109 6.1992 13.422 12.398 20.141 18.602-2.5586 0.96875-5.1094 1.9297-7.6602 2.8984-0.73046 0.26953-0.94921 1.0586-0.4414 1.6719 7.9023 9.3672 28.391 22.93 38.941 10.059 4.6016-5.6016 5.9688-13.742 6.9414-20.691 1.1992-8.5078 1.4805-17.148 1.3984-25.738-0.0391-5.2695-0.19922-10.551-0.6211-15.812-0.0391-0.48828-0.42968-1.0469-1-1-5.3984 0.53125-10.688 0.5-16.109 0.36328-2.2383-0.0625-1.6289 0.50781-2.1797-1.5898-0.25781-0.98047-0.30078-2.0625-0.44922-3.0625-0.0508-0.39063-0.57031-0.78907-0.96093-0.73828-0.84766 0.10937-1.6875 0.21093-2.5391 0.28906-2.1914 0.21094-2.9805 0.71094-3.4492-1.5508-0.53125-2.5274-0.14062-3.0703 1.9297-3.0781 1.1992-0.0117 2.4297 0.1875 3.6211 0.28906 0.57812 0.0391 0.94921-0.5 1-1 0.0898-0.89843 0.23828-1.8086 0.28906-2.7109 1.9805 0.35156 4.4609-0.0195 6.4375-0.0195 4.0703 0.0117 8.1406 0.0117 12.211 0.0117 0.55078 0 0.98046-0.46093 1-1 0.12109-3.8516 0.16015-7.7109 0.0703-11.562-0.0703-2.9688 0.53125-7.457-2.2812-9.3906-1.1562-0.79688-2.6562-0.86719-3.9375-1.3594-3.1289-1.1875-5.6719-3.5703-7.6211-6.2383-3.168-4.3398-4.8789-9.4805-4.0781-14.852 0.83984-5.6172 3.75-10.707 8.4375-13.98 8.082-5.6172 19.762-5.4375 28.191-0.66797 4.3398 2.4609 7.8711 6.2578 9.3906 11.078 2.7305 8.6328-1.5117 20.16-9.9023 24.102-2.1094 1-5.3594 1.1484-6.5898 3.4805-0.77734 1.4688-0.6289 3.8203-0.70703 5.3984-0.22265 4.6523-0.14062 9.3398 0 13.992 8e-3 0.53907 0.4375 1 1 1 4.0586 0 8.1289 0 12.199-0.0117 1.7383 0 4.8008 0.60156 6.418 0 0.0195-8e-3 0.0312-8e-3 0.0508-0.0195 0.10156 0.91016 0.17188 1.8281 0.26172 2.75 0.0469 0.5 0.41797 1.0391 1 1 3.0273-0.23828 6.5195-1.7617 5.5469 2.7891-0.4375 2.082-0.75781 1.7695-2.9102 1.6016-1.0274-0.082-2.0469-0.19922-3.0664-0.33984-0.39062-0.0508-0.91015 0.34765-0.97265 0.73828-0.11719 0.85937-0.25 1.7226-0.36719 2.582-0.35156 2.3476 0.0391 2.0195-2.2617 2.0703-5.4102 0.12891-10.699 0.16797-16.102-0.36328-0.57032-0.0469-0.95703 0.51172-1 1-1.0274 12.852-1.0703 26.012 0.42187 38.812 0.85938 7.3398 2.0391 15.539 6.1484 21.859 4.1992 6.4492 12.082 7.4805 19.16 5.6094 8.0391-2.1211 15.602-7.7891 20.922-14.098 0.50781-0.61328 0.30078-1.4023-0.44141-1.6719-2.5312-0.96094-5.0703-1.918-7.5976-2.8789 6.6992-5.8203 13.387-11.641 20.09-17.473" fill="#3a5461"/>
   <path d="m404.73 600.8c0.0117-7.4102-8.2578-10.973-14.621-9.8398-9.1875 2.4297-12.66 15.477-3.3281 20.418 7.4297 3.9219 17.93-1.9688 17.949-10.578m1.8906-1.4922c1.1016 8.5625-7.5391 16.18-15.809 15.32-14.801-1.5391-14.863-22-1.2422-25.602 7.1094-1.2695 16.031 2.293 17.051 10.281"/>
  </g>
 </g>
</svg>
