<?xml version="1.0" encoding="UTF-8" standalone="no"?>
<!-- Created with Inkscape (http://www.inkscape.org/) -->

<svg
   width="68.352112mm"
   height="61.58604mm"
   viewBox="0 0 68.352112 61.58604"
   version="1.1"
   id="svg1"
   xml:space="preserve"
   xmlns="http://www.w3.org/2000/svg"
   xmlns:svg="http://www.w3.org/2000/svg"><defs
     id="defs1"><clipPath
       clipPathUnits="userSpaceOnUse"
       id="clipPath8"><path
         style="fill:none;stroke:#deddda;stroke-width:0;stroke-miterlimit:0"
         d="m 82.049865,33.486182 c 67.292395,0.635834 67.080445,0.635834 67.292395,0.635834 0.21194,0 0.21194,0 0.21194,0 0,0 0.10597,-0.529862 0,0 -0.10597,0.529861 -0.21194,-0.105972 -0.21194,-0.105972 l 0.7418,61.145997 c -68.352111,0 -68.352111,0 -68.352111,0 z"
         id="path9" /></clipPath></defs><g
     id="layer1"
     transform="translate(-81.731949,-33.486182)"
     clip-path="url(#clipPath8)"><g
       id="g1"
       transform="matrix(3.8530512,0,0,2.7023001,-286.06173,-333.74187)"
       style="fill:#ed3213;fill-opacity:1"><path
         style="fill:#ed3213;fill-opacity:1"
         d="m 111.36525,158.32197 c -0.34429,-0.41654 -0.32678,-0.42242 0.23084,-0.0775 0.52389,0.32406 0.63984,0.32094 0.88004,-0.0236 0.24592,-0.35278 0.26463,-0.35278 0.16844,0 -0.1559,0.57178 -0.84526,0.62628 -1.27932,0.10113 z m -2.02619,-1.04369 c -0.76398,-0.34904 -1.38906,-0.69225 -1.38906,-0.76267 0,-0.17425 2.45052,0.883 2.7649,1.19289 0.34251,0.33761 0.22303,0.30025 -1.37584,-0.43022 z m 3.17024,-0.38036 c 0,-0.50932 0.0545,-0.71768 0.121,-0.46302 0.0665,0.25466 0.0665,0.67138 0,0.92604 -0.0666,0.25466 -0.121,0.0463 -0.121,-0.46302 z m -6.20364,-1.19062 c -0.53538,-0.3638 -1.31863,-0.66146 -1.74056,-0.66146 -0.92933,0 -2.50036,-0.74004 -2.29081,-1.0791 0.0829,-0.1341 0.22304,-0.24382 0.31146,-0.24382 0.0884,0 0.0832,0.0776 -0.0116,0.17239 -0.27394,0.27394 1.12154,0.88547 2.03267,0.89076 0.47755,0.003 1.32377,0.33964 1.99394,0.79375 0.64036,0.43391 1.05496,0.78894 0.92132,0.78894 -0.13364,0 -0.68102,-0.29766 -1.21641,-0.66146 z m 5.61309,-2.64584 c 0,-0.84887 0.0695,-1.47395 0.15434,-1.38906 0.0849,0.0849 0.15434,0.70997 0.15434,1.38906 0,0.6791 -0.0695,1.30418 -0.15434,1.38907 -0.0849,0.0849 -0.15434,-0.54019 -0.15434,-1.38907 z m -10.47972,0.54985 c -0.15884,-0.41395 0.37903,-1.6106 0.61698,-1.37265 0.0817,0.0817 -7.9e-4,0.32851 -0.18332,0.54846 -0.18254,0.21994 -0.26278,0.58001 -0.1783,0.80014 0.0845,0.22014 0.094,0.40025 0.0213,0.40025 -0.0728,0 -0.19725,-0.16929 -0.27665,-0.3762 z m 4.52659,-0.41755 c -0.0899,-0.14553 -0.0444,-0.26459 0.10107,-0.26459 0.14552,0 0.33816,0.11906 0.4281,0.26459 0.0899,0.14552 0.0445,0.26458 -0.10106,0.26458 -0.14552,0 -0.33817,-0.11906 -0.42811,-0.26458 z m -1.32291,-1.05834 c -0.0899,-0.14552 -0.72204,-0.28538 -1.40468,-0.31081 l -1.24116,-0.0462 1.11268,-0.1007 c 0.67208,-0.0608 1.40546,0.058 1.85208,0.30021 0.49575,0.2688 0.59198,0.40441 0.29201,0.41151 -0.24608,0.006 -0.521,-0.10847 -0.61093,-0.25399 z m 0.45481,-0.98135 c -0.46843,-0.52452 -0.85547,-1.2029 -0.8601,-1.50751 -0.009,-0.60216 -0.56914,-1.47866 -0.9468,-1.48193 -0.12948,-10e-4 -0.50686,-0.47737 -0.83862,-1.05833 -0.33177,-0.58096 -0.70599,-1.05629 -0.83159,-1.05629 -0.12561,0 -0.30187,-0.20836 -0.39169,-0.46302 -0.14878,-0.42182 0.7787,0.53307 2.29611,2.36398 0.32379,0.39068 0.72103,0.71811 0.88275,0.7276 0.16508,0.01 0.24103,0.29456 0.17318,0.64949 -0.13218,0.69148 0.63731,2.09805 1.0188,1.86228 0.13063,-0.0807 0.31091,0.0445 0.40062,0.27827 0.29543,0.76986 -0.038,0.65369 -0.90266,-0.31454 z m 6.60823,-1.66448 c -0.0389,-1.44119 -0.19708,-2.21976 -0.57785,-2.84427 -0.28836,-0.47294 -0.63052,-0.8599 -0.76036,-0.8599 -0.46186,0 -0.8904,0.80072 -0.76884,1.43659 0.0679,0.35523 0.0419,0.77789 -0.0578,0.93924 -0.0997,0.16136 -0.19806,-0.15203 -0.21852,-0.6964 -0.0382,-1.01641 0.52333,-1.94401 1.17684,-1.94401 0.19277,0 0.59615,0.48152 0.89639,1.07005 0.43758,0.85772 0.52783,1.44835 0.45483,2.97656 l -0.0911,1.90651 z m -2.962,0.24675 c 0,-0.16807 -0.229,-0.20973 -0.56563,-0.10289 -0.49735,0.15785 -0.54969,0.0961 -0.43357,-0.51133 0.10178,-0.53241 0.0256,-0.69086 -0.3321,-0.69086 -0.42421,0 -0.78537,-0.49111 -0.78537,-1.06795 0,-0.28447 1.44562,1.11843 1.4512,1.40833 0.002,0.11444 0.18258,0.31844 0.40082,0.45333 0.28387,0.17543 0.44802,0.1162 0.57672,-0.20809 0.1322,-0.33311 0.18484,-0.26038 0.1985,0.27427 0.0102,0.40018 -0.10047,0.72761 -0.24599,0.72761 -0.14552,0 -0.26458,-0.12709 -0.26458,-0.28242 z m -3.01679,-3.61188 c -0.818,-0.20927 -1.11835,-0.64821 -0.99918,-1.4602 0.089,-0.60667 -0.003,-0.79367 -0.44953,-0.91036 -0.30887,-0.0808 -0.56158,-0.25204 -0.56158,-0.38059 0,-0.41123 -2.10049,-2.35039 -2.54594,-2.35039 -0.32912,0 -0.36052,-0.0828 -0.13459,-0.35507 0.16208,-0.19529 0.20642,-0.4525 0.0985,-0.57159 -0.10787,-0.11908 -0.0454,-0.12966 0.13891,-0.0235 0.18427,0.10615 0.26654,0.30383 0.18282,0.4393 -0.0837,0.13546 -0.0376,0.2463 0.10252,0.2463 0.1401,0 0.97832,0.74414 1.86269,1.65365 1.17594,1.20934 1.60931,1.85089 1.61296,2.38779 0.004,0.53717 0.18248,0.80163 0.66646,0.98564 0.3638,0.13832 0.66146,0.31397 0.66146,0.39033 0,0.0764 -0.0298,0.12503 -0.0661,0.10815 -0.0364,-0.0169 -0.2926,-0.0886 -0.56939,-0.15944 z m -5.23633,-1.59581 c -0.2187,-0.25466 -0.48411,-0.64161 -0.589798,-0.85989 -0.105687,-0.21829 -0.0022,-0.15875 0.230068,0.13229 0.23223,0.29104 0.621,0.67799 0.86394,0.85989 0.24294,0.1819 0.31835,0.33073 0.16757,0.33073 -0.15078,0 -0.45308,-0.20836 -0.67178,-0.46302 z m -1.079491,-2.16572 c -0.07982,-0.30523 0.02333,-0.57242 0.255364,-0.66146 0.547437,-0.21007 0.664947,-0.18681 0.489587,0.0969 -0.0837,0.13547 -0.0312,0.32109 0.11668,0.41249 0.44077,0.27241 0.30546,0.66413 -0.22941,0.66413 -0.274071,0 -0.55857,-0.23044 -0.632221,-0.51208 z m -0.885263,-0.34782 c -0.107215,-0.1819 -0.36606,-0.59862 -0.575211,-0.92604 -0.209151,-0.32742 -0.277285,-0.59238 -0.151408,-0.5888 0.223453,0.006 1.25253,1.84557 1.032634,1.84557 -0.06109,0 -0.1988,-0.14883 -0.306015,-0.33073 z m -1.423793,-2.05052 c -0.238467,-0.15411 -0.271101,-0.2581 -0.08176,-0.26053 0.173313,-0.002 0.388699,0.11501 0.478636,0.26053 0.203016,0.32849 0.111422,0.32849 -0.396876,0 z m 2.824844,0.0785 c -0.280823,-0.0726 -0.423159,-0.27925 -0.340582,-0.49444 0.16284,-0.42436 -0.56606,-0.8855 -1.52512,-0.96487 -0.361025,-0.0299 -0.603519,-0.1399 -0.538876,-0.2445 0.223139,-0.36104 -0.444537,-0.53597 -0.828731,-0.21712 -0.310399,0.25761 -0.385285,0.23633 -0.385285,-0.10951 0,-0.57413 1.29132,-0.57362 1.711257,6.8e-4 0.172912,0.23647 0.632522,0.42995 1.021356,0.42995 0.423465,0 0.70697,0.14589 0.70697,0.3638 0,0.20009 0.0893,0.3497 0.198438,0.33247 0.585016,-0.0924 0.859896,0.0868 0.859896,0.5605 0,0.54133 -0.0448,0.55881 -0.879323,0.34304 z m 0.614743,-0.45972 c 0,-0.27926 -0.50777,-0.39659 -0.658795,-0.15222 -0.0914,0.14789 0.01943,0.2689 0.246305,0.2689 0.22687,0 0.41249,-0.0525 0.41249,-0.11668 z m -4.056948,-0.3243 c -0.09701,-0.097 -0.176389,-0.29942 -0.176389,-0.44979 0,-0.16579 0.123235,-0.15017 0.31309,0.0397 0.1722,0.1722 0.251575,0.37461 0.176389,0.44979 -0.07519,0.0752 -0.216076,0.0573 -0.31309,-0.0397 z m 1.684288,-1.92422 c -0.335121,-0.62618 0.140551,-1.04451 0.609773,-0.53627 0.235816,0.25543 0.230432,0.28965 -0.02305,0.14654 -0.206958,-0.11684 -0.330729,-0.0218 -0.330729,0.25408 0,0.28311 0.141968,0.38632 0.396875,0.2885 0.218281,-0.0838 0.396875,-0.037 0.396875,0.10398 0,0.45812 -0.767625,0.27031 -1.04974,-0.25683 z"
         id="path7" /><path
         style="fill:#ed3213;fill-opacity:1"
         d="m 111.53712,158.24551 c -0.0815,-0.13195 0.09,-0.17759 0.38126,-0.10143 0.6178,0.16156 0.6959,0.34134 0.14828,0.34134 -0.2097,0 -0.44799,-0.10796 -0.52954,-0.23991 z M 107.95,156.34143 c -0.50932,-0.29387 -0.68792,-0.45216 -0.39688,-0.35176 0.29105,0.1004 0.79706,0.24065 1.12448,0.31166 0.32743,0.071 0.59532,0.2343 0.59532,0.36285 0,0.34401 -0.2899,0.27329 -1.32292,-0.32275 z m 4.10562,-0.4357 c -0.10138,-0.25466 -0.22602,-1.41552 -0.27698,-2.57968 l -0.0926,-2.11667 0.21232,1.99215 c 0.11677,1.09569 0.29623,2.25655 0.39879,2.57969 0.22029,0.69407 0.0253,0.79462 -0.24148,0.12451 z m -5.92087,-0.60411 c -0.34354,-0.2862 -0.51082,-0.52036 -0.37174,-0.52036 0.13909,0 0.46839,0.23812 0.73178,0.52916 0.60507,0.6686 0.44849,0.66477 -0.36004,-0.009 z m -2.79134,-0.74673 c -0.0769,-0.1245 0.15416,-0.17015 0.51356,-0.10144 0.35939,0.0687 0.65345,0.17056 0.65345,0.22636 0,0.20472 -1.03152,0.0943 -1.16701,-0.12492 z m -1.33603,-0.65927 c -0.4409,-0.3224 -0.45221,-0.43621 -0.11827,-1.19063 0.51279,-1.15846 0.83367,-1.05302 0.34617,0.11375 -0.38355,0.91794 -0.37894,0.94246 0.14579,0.77592 0.38875,-0.12339 0.54185,-0.0548 0.54185,0.24272 0,0.50865 -0.27559,0.52618 -0.91554,0.0582 z m 4.4521,-0.38014 c 0.0983,-0.15906 -0.0321,-0.41196 -0.28985,-0.562 -0.25772,-0.15004 -0.33434,-0.27642 -0.17026,-0.28085 0.50947,-0.0137 0.97087,0.70592 0.59968,0.93533 -0.19541,0.12077 -0.2493,0.0851 -0.13957,-0.0925 z m -2.74281,-0.57069 c 0,-0.13694 0.14092,-0.33607 0.31316,-0.44252 0.21529,-0.13305 0.15326,-0.25617 -0.19843,-0.39389 -0.4509,-0.17657 -0.45624,-0.20256 -0.045,-0.21894 0.25664,-0.0102 0.69073,0.12136 0.96465,0.29243 0.41336,0.25814 0.43845,0.3706 0.1476,0.66145 -0.40331,0.40331 -1.18198,0.47015 -1.18198,0.10147 z m 1.85208,-0.64877 c 0,-0.0572 0.18478,-0.17489 0.41062,-0.26155 0.23546,-0.0904 0.34166,-0.046 0.24897,0.10398 -0.15538,0.25141 -0.65959,0.37186 -0.65959,0.15757 z m -0.67627,-1.67555 c -0.22812,-0.34815 -0.36409,-0.89386 -0.30215,-1.21267 0.0893,-0.45954 0.12007,-0.42301 0.14864,0.17624 0.0251,0.52727 0.14702,0.71332 0.40296,0.61511 0.25807,-0.099 0.3271,0.0115 0.23269,0.3725 -0.10204,0.39024 -0.0314,0.47386 0.29453,0.34877 0.23582,-0.0905 0.42877,-0.0526 0.42877,0.0843 0,0.49092 -0.79887,0.23629 -1.20544,-0.38421 z m 2.80835,-0.66271 c -0.18579,-0.41973 -0.26526,-0.83568 -0.17661,-0.92434 0.0887,-0.0887 0.1612,0.05 0.1612,0.30809 0,0.31828 0.13403,0.41785 0.41653,0.30944 0.22909,-0.0879 0.5699,-0.006 0.75736,0.18098 0.27804,0.27804 0.23384,0.39131 -0.23993,0.61489 -0.50521,0.23842 -0.6247,0.1748 -0.91855,-0.48906 z m 1.59473,-0.99734 c -0.008,-0.21828 0.10088,-0.57547 0.24194,-0.79375 0.31256,-0.48365 0.31256,-0.0659 0,0.66146 -0.14993,0.34892 -0.23235,0.39398 -0.24194,0.13229 z m -5.40006,-0.63559 c -0.14463,-0.3769 0.0196,-0.68732 0.36357,-0.68732 0.1043,0 0.2519,0.23812 0.32801,0.52916 0.15871,0.6069 -0.46468,0.74946 -0.69158,0.15816 z m -0.99502,-1.01805 c -0.16811,-0.32743 -0.6719,-0.98227 -1.11955,-1.45521 -0.44765,-0.47294 -0.74278,-0.8599 -0.65585,-0.8599 0.0869,0 -0.18737,-0.36978 -0.60955,-0.82173 -0.854846,-0.91511 -0.963588,-1.29493 -0.37074,-1.29493 0.45153,0 0.53146,-0.41477 0.12798,-0.66413 -0.1479,-0.0914 -0.2096,-0.26214 -0.13712,-0.37942 0.0725,-0.11727 -0.161531,-0.21322 -0.520025,-0.21322 -0.358495,0 -0.587422,0.10417 -0.508727,0.23151 0.07869,0.12733 0.02697,0.23151 -0.11494,0.23151 -0.141912,0 -0.416128,-0.35719 -0.609369,-0.79375 -0.193242,-0.43657 -0.428608,-0.79375 -0.523036,-0.79375 -0.09443,0 -0.249082,-0.20169 -0.343674,-0.44819 -0.150741,-0.39283 -0.105215,-0.38776 0.368568,0.041 0.297304,0.26905 0.540824,0.61957 0.541156,0.77891 3.32e-4,0.15935 0.348799,0.30196 0.774372,0.31692 0.594965,0.0209 0.765356,-0.0845 0.737362,-0.45612 -0.02002,-0.26582 -0.189897,-0.54222 -0.377497,-0.6142 -0.1876,-0.072 -0.34109,-0.32025 -0.34109,-0.55169 0,-0.23143 -0.106587,-0.35492 -0.236859,-0.2744 -0.130273,0.0805 -0.30513,-0.0315 -0.388571,-0.24897 -0.189447,-0.49369 0.08731,-0.50448 0.764996,-0.0298 0.287041,0.20105 0.640955,0.38957 0.786474,0.41892 0.14552,0.0294 0.32412,0.12057 0.39688,0.20269 0.0728,0.0821 -0.1356,0.0833 -0.46302,0.003 -0.327426,-0.0806 -0.595317,-0.0387 -0.595317,0.0932 0,0.22035 0.198677,0.2724 1.322917,0.3466 0.21828,0.0144 0.33734,0.1443 0.26458,0.28864 -0.0728,0.14434 -0.28112,0.22826 -0.46302,0.18649 -0.1819,-0.0418 -0.33073,0.0483 -0.33073,0.20023 0,0.1519 0.35719,0.27618 0.79375,0.27618 0.43657,0 0.79375,0.12609 0.79375,0.2802 0,0.15411 -0.1166,0.20814 -0.25911,0.12006 -0.14252,-0.0881 -0.50739,-0.0273 -0.81084,0.13513 -0.43897,0.23493 -0.48812,0.37189 -0.2405,0.67025 0.18186,0.21914 0.23757,0.6684 0.13403,1.08093 -0.20106,0.80107 0.29011,1.29463 0.83682,0.8409 0.25179,-0.20896 0.3396,-0.17488 0.3396,0.13181 0,0.22751 -0.121,0.48844 -0.2689,0.57985 -0.41802,0.25835 -0.0317,0.65602 0.4556,0.46901 0.32453,-0.12454 0.39208,-0.0566 0.26719,0.2689 -0.10225,0.26648 0.0192,0.56676 0.31299,0.77353 0.45282,0.31876 1.0191,1.5286 0.71547,1.5286 -0.0774,0 -0.27835,-0.26789 -0.44645,-0.59531 z m 6.64107,-0.39688 c 0.003,-0.57048 0.0603,-0.6419 0.26458,-0.33073 0.22894,0.34875 0.29093,0.3496 0.51115,0.007 0.16711,-0.25998 0.14507,-0.457 -0.0661,-0.59127 -0.2445,-0.15543 -0.24474,-0.20229 -0.001,-0.20542 0.17365,-0.002 0.49651,0.25405 0.71746,0.56951 0.36316,0.51848 0.35825,0.60661 -0.0511,0.91763 -0.78997,0.60017 -1.37938,0.44296 -1.37487,-0.36671 z m -3.05764,-0.0837 c -0.0959,-0.1552 -0.11765,-0.33893 -0.0483,-0.40828 0.0694,-0.0694 0.1966,0.0576 0.28277,0.28218 0.17891,0.46623 0.0264,0.54824 -0.23447,0.1261 z m -1.88557,-0.99826 c -0.20361,-0.32603 -0.21797,-0.60988 -0.0435,-0.85989 0.21944,-0.31444 0.24351,-0.31109 0.1529,0.0213 -0.12787,0.46903 0.30447,0.95338 1.01201,1.13376 0.40333,0.10282 0.37112,0.13658 -0.1535,0.16083 -0.3837,0.0177 -0.79226,-0.17474 -0.96791,-0.45601 z m -0.4848,-1.81863 c -0.75954,-0.1827 -0.93904,-0.42181 -0.65449,-0.87188 0.21172,-0.33489 0.25013,-0.32454 0.25356,0.0684 0.002,0.25466 0.17562,0.46302 0.38532,0.46302 0.20969,0 0.45484,0.11906 0.54478,0.26458 0.0899,0.14552 0.12673,0.25077 0.0818,0.23389 -0.045,-0.0169 -0.31989,-0.088 -0.61093,-0.15797 z m -1.64704,-1.66342 c 0.0219,-0.29104 0.0699,-0.52917 0.10654,-0.52917 0.0367,0 0.19412,0.23813 0.34988,0.52917 0.22362,0.41785 0.20121,0.52917 -0.10654,0.52917 -0.22664,0 -0.37306,-0.22145 -0.34988,-0.52917 z m -5.798564,-3.30092 c -0.240315,-0.51825 -0.224122,-0.71548 0.07942,-0.9674 0.299103,-0.24823 0.450109,-0.23579 0.700621,0.0577 0.175637,0.20579 0.20538,0.28485 0.0661,0.17571 -0.493439,-0.38665 -0.661367,-0.18853 -0.504598,0.59532 0.192421,0.9621 0.0644,1.01408 -0.341543,0.13866 z M 98.425,137.17085 c 0,-0.22687 0.119062,-0.33891 0.264583,-0.24897 0.145521,0.0899 0.264583,0.27556 0.264583,0.41249 0,0.13693 -0.119062,0.24897 -0.264583,0.24897 -0.145521,0 -0.264583,-0.18562 -0.264583,-0.41249 z"
         id="path6" /><path
         style="fill:#ed3213;fill-opacity:1"
         d="m 114.13986,140.2351 c -0.57056,-0.2306 -1.0869,-2.04246 -0.69283,-2.43121 0.10533,-0.10391 0.21992,0.2987 0.25465,0.89468 0.0347,0.59599 0.12212,1.1426 0.19421,1.21469 0.0721,0.0721 0.87712,0.2159 1.78895,0.31958 1.64671,0.18724 1.64896,0.18864 0.33495,0.20794 -0.7276,0.0107 -1.57357,-0.0819 -1.87993,-0.20568 z m 0.64306,-3.22105 c 0.62957,-0.7141 0.42867,-1.22157 -0.3633,-0.91767 -0.21131,0.0811 -0.3842,0.0292 -0.3842,-0.11539 0,-0.34459 1.29656,-0.83169 1.83124,-0.68798 0.26045,0.07 0.19359,0.12383 -0.1776,0.14297 -0.97608,0.0503 -0.67538,0.49982 0.46302,0.69215 0.58209,0.0983 1.05834,0.32709 1.05834,0.50833 0,0.55437 -0.26191,0.63734 -1.06041,0.33594 -0.64103,-0.24196 -0.86389,-0.20541 -1.37373,0.22531 l -0.60857,0.51414 z"
         id="path5" /><path
         style="fill:#ed3213;fill-opacity:1"
         d="m 110.59583,157.49417 c -0.65484,-0.38831 -1.25015,-0.77125 -1.32291,-0.85098 -0.0728,-0.0797 -0.60855,-0.3074 -1.19063,-0.50594 -0.58208,-0.19853 -1.30736,-0.58788 -1.61173,-0.86522 -0.30436,-0.27734 -1.01874,-0.56304 -1.5875,-0.63489 -1.52271,-0.19235 -1.96014,-0.3748 -1.96014,-0.81759 0,-0.27431 -0.1608,-0.34584 -0.52068,-0.23161 -0.47795,0.15169 -0.49753,0.0988 -0.23853,-0.64412 0.34993,-1.00382 0.55394,-1.13458 1.42787,-0.91524 0.49352,0.12387 0.61126,0.25567 0.40904,0.45789 -0.43448,0.43448 -0.3399,0.70729 0.24521,0.70729 0.29104,0 0.52917,-0.10742 0.52917,-0.2387 0,-0.13129 0.34282,-0.35821 0.76182,-0.50428 0.63988,-0.22306 0.74035,-0.37789 0.62768,-0.96727 -0.093,-0.48657 -0.25523,-0.65523 -0.52912,-0.55013 -0.28888,0.11086 -0.35893,0.0137 -0.26076,-0.36173 0.0944,-0.36102 0.0254,-0.47153 -0.23269,-0.3725 -0.25966,0.0996 -0.36799,-0.0802 -0.37054,-0.61511 -0.006,-1.35483 -0.28136,-1.97572 -0.8016,-1.81061 -0.33668,0.10686 -0.53083,-0.0258 -0.66662,-0.4556 -0.10537,-0.3335 -0.40764,-0.75845 -0.67171,-0.94434 -0.29375,-0.20677 -0.41524,-0.50705 -0.31299,-0.77353 0.12489,-0.32545 0.0573,-0.39344 -0.26719,-0.2689 -0.48733,0.18701 -0.87362,-0.21066 -0.4556,-0.46901 0.1479,-0.0914 0.2689,-0.35234 0.2689,-0.57985 0,-0.30669 -0.0878,-0.34077 -0.3396,-0.13181 -0.54671,0.45373 -1.03788,-0.0398 -0.83682,-0.8409 0.10354,-0.41253 0.0478,-0.86179 -0.13403,-1.08093 -0.24787,-0.29866 -0.19642,-0.43642 0.25278,-0.67682 0.70442,-0.377 1.92468,0.29534 1.68232,0.92692 -0.10605,0.27636 0.0202,0.39635 0.41698,0.39635 0.39124,0 0.54478,0.14169 0.49133,0.45343 -0.048,0.27982 0.12486,0.49226 0.45142,0.55484 0.78766,0.15096 1.00622,0.4642 0.71005,1.0176 -0.36383,0.67982 0.20785,1.41371 1.10124,1.41371 0.60373,0 0.73435,0.15775 0.99817,1.20545 0.22352,0.88768 0.40665,1.16587 0.69472,1.05533 0.27995,-0.10743 0.34353,-0.0259 0.22359,0.28664 -0.0922,0.24022 -0.0228,0.76392 0.15421,1.16379 0.28012,0.63282 0.39229,0.68804 0.86575,0.42613 0.29916,-0.16548 0.57743,-0.31454 0.61838,-0.33123 0.0409,-0.0167 0.11907,-0.25481 0.17361,-0.52917 0.28851,-1.45117 0.49997,-1.85094 1.13819,-2.15165 1.01338,-0.47749 1.11761,-0.15407 1.12956,3.50492 0.006,1.74625 0.13876,3.65125 0.29569,4.23333 0.15692,0.58208 0.34518,1.50482 0.41835,2.05052 0.16233,1.21077 -0.11149,1.25174 -1.77464,0.26552 z m -3.9883,-4.45626 c -0.1704,-0.20533 -0.41431,-0.37332 -0.54201,-0.37332 -0.35801,0 -0.27466,0.73442 0.0985,0.86829 0.52989,0.19007 0.78017,-0.0893 0.44347,-0.49497 z m 3.19455,-6.59103 c 0,-0.21828 0.17486,-0.39687 0.38857,-0.39687 0.2367,0 0.32905,0.15512 0.23628,0.39687 -0.0838,0.21828 -0.25862,0.39688 -0.38857,0.39688 -0.12995,0 -0.23628,-0.1786 -0.23628,-0.39688 z m -11.376477,-5.60319 c -3.32e-4,-0.17134 -0.278227,-0.52991 -0.617546,-0.79681 -0.654901,-0.51515 -1.176564,-1.93437 -0.711015,-1.93437 0.148293,0 0.269624,0.11906 0.269624,0.26458 0,0.14552 0.241862,0.26458 0.537471,0.26458 0.295609,0 0.605741,0.17791 0.689183,0.39536 0.08344,0.21744 0.258298,0.32948 0.388571,0.24897 0.130272,-0.0805 0.236859,0.043 0.236859,0.2744 0,0.23144 0.15349,0.4797 0.34109,0.55169 0.1876,0.072 0.357473,0.34838 0.377497,0.6142 0.02799,0.37162 -0.142397,0.47703 -0.737362,0.45612 -0.425573,-0.015 -0.77404,-0.16738 -0.774372,-0.33872 z m 1.851477,-0.0854 c 0,-0.14552 0.11907,-0.26458 0.26459,-0.26458 0.14552,0 0.26458,0.11906 0.26458,0.26458 0,0.14552 -0.11906,0.26458 -0.26458,0.26458 -0.14552,0 -0.26459,-0.11906 -0.26459,-0.26458 z"
         id="path4" /><path
         style="fill:#ed3213;fill-opacity:1"
         d="m 90.95052,149.31436 c 0.181901,-0.0734 0.479558,-0.0734 0.661459,0 0.181901,0.0734 0.03307,0.13345 -0.330729,0.13345 -0.363803,0 -0.512631,-0.0601 -0.33073,-0.13345 z m 0.463021,-1.41227 c -0.431379,-0.18537 -0.446488,-0.23083 -0.08176,-0.24599 0.246074,-0.0102 0.520991,0.10047 0.610928,0.24599 0.18803,0.30424 0.178835,0.30424 -0.529168,0 z m 23.746359,-7.86243 c 0.40018,-0.0606 1.05502,-0.0606 1.4552,0 0.40019,0.0606 0.0728,0.11023 -0.7276,0.11023 -0.80036,0 -1.12779,-0.0496 -0.7276,-0.11023 z m -1.35034,-0.47195 c -0.0253,-0.29104 -0.11719,-0.79493 -0.20426,-1.11976 -0.12397,-0.46253 -0.014,-0.64546 0.50708,-0.84358 0.36596,-0.13913 0.74351,-0.37938 0.83899,-0.53388 0.0955,-0.15449 0.43447,-0.26709 0.75331,-0.25021 0.53826,0.0285 0.54188,0.0402 0.0505,0.16372 -0.8584,0.2158 -1.66961,1.21167 -1.78872,2.19588 -0.061,0.50435 -0.13165,0.67888 -0.15693,0.38783 z m 2.76665,-2.20486 c -0.075,-0.12126 0.0371,-0.22048 0.24897,-0.22048 0.21188,0 0.38524,0.0992 0.38524,0.22048 0,0.12127 -0.11204,0.22049 -0.24897,0.22049 -0.13693,0 -0.31029,-0.0992 -0.38524,-0.22049 z m -0.88715,-1.30523 c -0.99731,-0.16516 -0.6637,-0.59095 0.46302,-0.59095 0.58209,0 1.05834,0.0553 1.05834,0.12299 0,0.26642 -0.95833,0.5612 -1.52136,0.46796 z"
         id="path3" /><path
         style="fill:#ed3213;fill-opacity:1"
         d="m 114.03999,139.10469 c 0.003,-0.55717 0.22566,-1.06947 0.6326,-1.4552 1.22172,-1.15807 2.53783,-0.52549 2.53783,1.21979 v 1.09531 h -1.5875 -1.5875 z m 2.37668,-2.94825 c 0,-0.0572 0.17859,-0.17252 0.39687,-0.25628 0.21828,-0.0838 0.39688,-0.037 0.39688,0.10398 0,0.14096 -0.1786,0.25628 -0.39688,0.25628 -0.21828,0 -0.39687,-0.0468 -0.39687,-0.10398 z"
         id="path2" /><path
         style="fill:#ed3213;fill-opacity:1"
         d="m 90.752083,148.45603 c 0,-0.6407 0.08896,-0.74572 0.53329,-0.62953 0.293309,0.0767 0.591352,0.23341 0.662316,0.34823 0.242359,0.39215 -0.192989,1.05028 -0.694747,1.05028 -0.376536,0 -0.500859,-0.19088 -0.500859,-0.76898 z"
         id="path1" /></g></g></svg>
