<?xml version="1.0" encoding="UTF-8" standalone="no"?>
<!-- Created with Inkscape (http://www.inkscape.org/) -->

<svg
   width="209.58064mm"
   height="145.55009mm"
   viewBox="0 0 209.58064 145.55009"
   version="1.1"
   id="svg1"
   xml:space="preserve"
   xmlns="http://www.w3.org/2000/svg"
   xmlns:svg="http://www.w3.org/2000/svg"><defs
     id="defs1" /><g
     id="layer1"
     transform="translate(-31.853614,-84.351428)"><g
       id="g15"
       transform="translate(-32.693596,-1.0897866)"><path
         style="fill:#cac7c8"
         d="m 169.29556,230.94847 104.74832,-0.0428 0.042,-34.71366 0.042,-34.71365 -5.9e-4,34.75628 -6e-4,34.75627 -104.78974,2e-4 -104.789739,2e-4 z m -101.466592,-34.71385 6.46e-4,-31.69705 46.363516,-4.4e-4 46.36351,-4.5e-4 -46.32205,0.0432 -46.322055,0.0432 -0.04211,31.65426 -0.04211,31.65426 z m 202.973922,0.12776 -0.0406,-31.73924 -46.40454,-0.0431 -46.40454,-0.0431 46.40969,-0.0422 c 37.00678,-0.0336 46.42549,8.5e-4 46.48768,0.17025 0.0429,0.11685 0.0588,14.43788 0.0354,31.82451 l -0.0425,31.61207 z m -140.06456,15.56217 c 0.11848,-0.0491 0.26003,-0.0431 0.31456,0.0134 0.0545,0.0565 -0.0424,0.0966 -0.2154,0.0893 -0.19119,-0.008 -0.23008,-0.0484 -0.0992,-0.10268 z m 1.80531,-6.28842 c 0.11847,-0.0491 0.26002,-0.0431 0.31456,0.0134 0.0545,0.0565 -0.0424,0.0967 -0.21541,0.0893 -0.19119,-0.008 -0.23007,-0.0484 -0.0991,-0.10268 z m 3.77473,0 c 0.11847,-0.0491 0.26002,-0.0431 0.31456,0.0134 0.0545,0.0565 -0.0424,0.0967 -0.21541,0.0893 -0.19119,-0.008 -0.23008,-0.0484 -0.0992,-0.10268 z m -40.834768,-3.91242 c 3.882967,-0.12045 7.511998,-0.12433 7.442308,-0.008 -0.042,0.0701 -2.08449,0.11146 -4.538888,0.0919 -2.454401,-0.0196 -3.76094,-0.0573 -2.90342,-0.0839 z m 135.859118,-0.008 c 1.29174,-0.0288 3.35964,-0.0287 4.59532,1.6e-4 1.23569,0.0288 0.17881,0.0524 -2.34862,0.0523 -2.52742,-8e-5 -3.53844,-0.0237 -2.2467,-0.0524 z m -77.07874,-1.06255 c 0,-0.2337 0.0373,-0.3293 0.0828,-0.21245 0.0455,0.11685 0.0455,0.30805 0,0.42489 -0.0455,0.11685 -0.0828,0.0213 -0.0828,-0.21244 z m 50.19439,-4.82298 c 0,-0.0353 0.12924,-0.16913 0.28721,-0.29742 0.2603,-0.21141 0.2661,-0.2054 0.062,0.0642 -0.2144,0.2831 -0.34917,0.37313 -0.34917,0.23325 z m 1.65414,-4.2839 c 0.008,-0.198 0.0468,-0.23827 0.0992,-0.10269 0.0474,0.12269 0.0416,0.26928 -0.013,0.32575 -0.0545,0.0565 -0.0933,-0.0439 -0.0862,-0.22306 z m -5.63768,-4.78233 c 0.29135,-0.0375 0.80832,-0.0382 1.14883,-0.001 0.34051,0.0368 0.10213,0.0675 -0.52972,0.0683 -0.63186,7.6e-4 -0.91046,-0.0293 -0.61911,-0.0669 z m -46.07264,-26.75156 c -1.03805,-0.83734 -1.99815,-1.64388 -2.13354,-1.79231 -0.1354,-0.14842 0.71391,0.47934 1.88736,1.39503 2.46704,1.92514 2.49974,1.95276 2.28945,1.9338 -0.0857,-0.008 -1.00522,-0.69917 -2.04327,-1.53652 z m 27.82631,1.40585 c 0.41844,-0.38843 3.52035,-2.74654 3.52035,-2.67622 0,0.10858 -3.43079,2.82095 -3.56813,2.82095 -0.0595,0 -0.038,-0.0651 0.0478,-0.14473 z m 3.93064,-3.08446 c 0.16338,-0.18695 0.33398,-0.33992 0.37911,-0.33992 0.0451,0 -0.0516,0.15297 -0.21499,0.33992 -0.16338,0.18695 -0.33398,0.33991 -0.37911,0.33991 -0.0451,0 0.0516,-0.15296 0.21499,-0.33991 z m -34.72351,-0.8073 -0.39787,-0.46738 0.45132,0.41203 c 0.42183,0.3851 0.52659,0.52273 0.39788,0.52273 -0.0294,0 -0.2325,-0.21032 -0.45133,-0.46738 z m 35.29793,0.43692 c 0,-0.0494 0.72007,-0.72929 1.60015,-1.511 0.88009,-0.7817 2.44947,-2.26273 3.48752,-3.29119 1.24119,-1.22971 1.46595,-1.4164 0.65648,-0.54529 -0.67699,0.72854 -2.0802,2.0986 -3.11826,3.04459 -1.03805,0.94598 -2.05353,1.87132 -2.25663,2.05629 -0.20309,0.18497 -0.36926,0.29594 -0.36926,0.2466 z m -37.82935,-2.66272 c -2.11594,-1.97746 -3.83699,-3.80802 -4.98182,-5.29883 -0.71149,-0.92651 -0.71078,-0.92611 0.15525,0.089 1.18872,1.39335 4.23392,4.53501 5.72923,5.91071 0.67699,0.62284 1.19396,1.13406 1.14883,1.13604 -0.0451,0.002 -0.9683,-0.82464 -2.05149,-1.83692 z m 0.64089,-2.27807 -0.31265,-0.3824 0.36927,0.32377 c 0.2031,0.17807 0.36927,0.35015 0.36927,0.3824 0,0.13601 -0.13209,0.0356 -0.42589,-0.32377 z m 39.40406,0.0425 c 0.16338,-0.18695 0.33398,-0.33991 0.37911,-0.33991 0.0451,0 -0.0516,0.15296 -0.21499,0.33991 -0.16338,0.18695 -0.33398,0.33992 -0.37911,0.33992 -0.0451,0 0.0516,-0.15297 0.21499,-0.33992 z m 5.16973,-2.46438 c 0.30621,-0.32717 0.59368,-0.59485 0.63881,-0.59485 0.0451,0 -0.16848,0.26768 -0.47469,0.59485 -0.30621,0.32717 -0.59367,0.59485 -0.6388,0.59485 -0.0451,0 0.16848,-0.26768 0.47468,-0.59485 z m -47.11446,-0.21245 -0.39788,-0.46738 0.45133,0.41203 c 0.42183,0.38511 0.52659,0.52274 0.39787,0.52274 -0.0294,0 -0.23249,-0.21033 -0.45132,-0.46739 z m 44.57063,-0.0425 c 0.16337,-0.18695 0.33397,-0.33991 0.37911,-0.33991 0.0451,0 -0.0516,0.15296 -0.215,0.33991 -0.16337,0.18696 -0.33397,0.33992 -0.37911,0.33992 -0.0451,0 0.0516,-0.15296 0.215,-0.33992 z m 4.0417,-1.62541 c 0.48975,-0.66029 1.13624,-1.59718 1.43665,-2.08198 0.3004,-0.4848 0.58391,-0.88145 0.63002,-0.88145 0.18987,0 -2.1232,3.39973 -2.62751,3.86188 -0.18129,0.16614 0.0711,-0.23816 0.56084,-0.89845 z m -53.32905,-0.84641 c -0.43374,-0.61169 -0.91663,-1.35738 -1.07308,-1.65708 -0.27648,-0.52963 -0.27621,-0.53314 0.01,-0.12523 1.26795,1.80785 1.99158,2.89448 1.92755,2.89448 -0.0417,0 -0.43062,-0.50048 -0.86436,-1.11217 z m -1.67149,-2.6269 c -0.0966,-0.18695 -0.13874,-0.33991 -0.0936,-0.33991 0.0451,0 0.16111,0.15296 0.25772,0.33991 0.0966,0.18696 0.13874,0.33992 0.0936,0.33992 -0.0451,0 -0.16111,-0.15296 -0.25773,-0.33992 z m 57.2774,0 c 0.0966,-0.18695 0.2126,-0.33991 0.25773,-0.33991 0.0451,0 0.003,0.15296 -0.0936,0.33991 -0.0966,0.18696 -0.21259,0.33992 -0.25772,0.33992 -0.0451,0 -0.003,-0.15296 0.0936,-0.33992 z m 0.85475,-1.60913 c 0.2879,-0.6046 0.55053,-1.07122 0.58363,-1.03694 0.0734,0.076 -0.91893,2.1362 -1.02891,2.1362 -0.043,0 0.15739,-0.49467 0.44528,-1.09926 z m -59.04307,-0.10734 c -0.23325,-0.47668 -0.39657,-0.89518 -0.36294,-0.93001 0.0336,-0.0348 0.25936,0.35517 0.50161,0.86668 0.24225,0.51151 0.40557,0.93002 0.36294,0.93002 -0.0426,0 -0.26836,-0.39001 -0.50161,-0.86669 z m -0.7036,-1.60497 c -0.27498,-0.62499 -0.22252,-0.75832 0.0748,-0.19014 0.13885,0.26532 0.22174,0.51421 0.18421,0.55307 -0.0375,0.0389 -0.1541,-0.12445 -0.25902,-0.36293 z m 60.38062,0.34719 c 0,-0.0935 0.10555,-0.36116 0.23455,-0.59485 0.129,-0.23369 0.23455,-0.34841 0.23455,-0.25494 0,0.0935 -0.10555,0.36116 -0.23455,0.59486 -0.129,0.23369 -0.23455,0.34841 -0.23455,0.25493 z m -61.29821,-3.07137 c -0.0604,-0.24908 -0.0781,-0.48564 -0.0394,-0.5257 0.0387,-0.0401 0.11972,0.13095 0.18009,0.38002 0.0604,0.24908 0.0781,0.48564 0.0394,0.5257 -0.0387,0.0401 -0.11973,-0.13095 -0.18009,-0.38002 z m 62.29436,0.26707 c 0,-0.14021 0.0635,-0.40789 0.14105,-0.59485 0.0889,-0.21425 0.14105,-0.24567 0.14105,-0.085 0,0.14021 -0.0635,0.40789 -0.14105,0.59485 -0.0889,0.21425 -0.14105,0.24567 -0.14105,0.085 z m -62.52635,-1.35965 c 0,-0.2337 0.0373,-0.3293 0.0828,-0.21245 0.0455,0.11685 0.0455,0.30805 0,0.42489 -0.0455,0.11685 -0.0828,0.0212 -0.0828,-0.21244 z m 62.85743,0 c 0,-0.2337 0.0373,-0.3293 0.0828,-0.21245 0.0455,0.11685 0.0455,0.30805 0,0.42489 -0.0455,0.11685 -0.0828,0.0212 -0.0828,-0.21244 z M 137.688,137.25942 c 0,-0.23369 0.0373,-0.32929 0.0828,-0.21245 0.0455,0.11685 0.0455,0.30805 0,0.4249 -0.0455,0.11684 -0.0828,0.0212 -0.0828,-0.21245 z m 63.18567,0 c 0,-0.23369 0.0373,-0.32929 0.0828,-0.21245 0.0455,0.11685 0.0455,0.30805 0,0.4249 -0.0455,0.11684 -0.0828,0.0212 -0.0828,-0.21245 z m -63.33762,-1.1897 c 0,-0.32717 0.0338,-0.46101 0.0751,-0.29743 0.0413,0.16359 0.0413,0.43127 0,0.59485 -0.0413,0.16359 -0.0751,0.0298 -0.0751,-0.29742 z m 63.5139,0 c 0,-0.32717 0.0338,-0.46101 0.0751,-0.29743 0.0413,0.16359 0.0413,0.43127 0,0.59485 -0.0413,0.16359 -0.0751,0.0298 -0.0751,-0.29742 z m -63.65538,-2.54936 c 0,-0.98151 0.0271,-1.38303 0.0603,-0.89228 0.0332,0.49075 0.0332,1.2938 0,1.78455 -0.0332,0.49076 -0.0603,0.0892 -0.0603,-0.89227 z m 63.84137,-0.085 c 4.2e-4,-0.93477 0.028,-1.29549 0.0612,-0.8016 0.0333,0.49388 0.0329,1.25869 -7.8e-4,1.69957 -0.0337,0.44088 -0.0609,0.0368 -0.0605,-0.89797 z M 137.53605,130.971 c 0,-0.32717 0.0338,-0.46101 0.0751,-0.29743 0.0413,0.16359 0.0413,0.43127 0,0.59485 -0.0413,0.16359 -0.0751,0.0298 -0.0751,-0.29742 z m 63.5139,0 c 0,-0.32717 0.0338,-0.46101 0.0751,-0.29743 0.0413,0.16359 0.0413,0.43127 0,0.59485 -0.0413,0.16359 -0.0751,0.0298 -0.0751,-0.29742 z M 137.688,129.95125 c 0,-0.23369 0.0373,-0.32929 0.0828,-0.21244 0.0455,0.11684 0.0455,0.30805 0,0.42489 -0.0455,0.11685 -0.0828,0.0212 -0.0828,-0.21245 z m 63.18567,0 c 0,-0.23369 0.0373,-0.32929 0.0828,-0.21244 0.0455,0.11684 0.0455,0.30805 0,0.42489 -0.0455,0.11685 -0.0828,0.0212 -0.0828,-0.21245 z m -63.02155,-0.84978 c 0,-0.23369 0.0373,-0.32929 0.0828,-0.21245 0.0455,0.11685 0.0455,0.30805 0,0.42489 -0.0455,0.11685 -0.0828,0.0213 -0.0828,-0.21244 z m 62.85743,0 c 0,-0.23369 0.0373,-0.32929 0.0828,-0.21245 0.0455,0.11685 0.0455,0.30805 0,0.42489 -0.0455,0.11685 -0.0828,0.0213 -0.0828,-0.21244 z m -0.34119,-1.13331 c -0.007,-0.1092 -0.0555,-0.33865 -0.10741,-0.50988 -0.0898,-0.29593 -0.0851,-0.2963 0.0937,-0.007 0.10347,0.1671 0.1518,0.39654 0.1074,0.50987 -0.0582,0.14871 -0.0843,0.1508 -0.0937,0.007 z m -61.70993,-1.50103 c 0,-0.0935 0.10555,-0.36116 0.23455,-0.59485 0.129,-0.23369 0.23454,-0.34841 0.23454,-0.25494 0,0.0935 -0.10554,0.36116 -0.23454,0.59485 -0.129,0.23369 -0.23455,0.34842 -0.23455,0.25494 z m 61.06716,-0.34719 c -0.27498,-0.62499 -0.22252,-0.75832 0.0748,-0.19015 0.13885,0.26533 0.22174,0.51421 0.18421,0.55308 -0.0375,0.0389 -0.15409,-0.12445 -0.25902,-0.36293 z m -60.04328,-1.86226 c 0.13883,-0.28043 0.37519,-0.66283 0.52523,-0.84978 0.15004,-0.18696 0.10692,-0.034 -0.0958,0.33991 -0.4473,0.82493 -0.78232,1.22274 -0.42941,0.50987 z m 59.17626,0.0425 c -0.10749,-0.21032 -0.30251,-0.5736 -0.43338,-0.80729 -0.22828,-0.40762 -0.22673,-0.41107 0.038,-0.085 0.32711,0.40285 0.78623,1.27468 0.67127,1.27468 -0.0443,0 -0.16844,-0.17209 -0.27593,-0.38241 z m -58.08176,-1.8219 c 0.19088,-0.2776 0.43087,-0.55837 0.53331,-0.62394 0.10244,-0.0656 -0.0206,0.16157 -0.2733,0.50473 -0.5486,0.74484 -0.75538,0.83964 -0.26001,0.11921 z m 56.86034,-0.11921 c -0.25276,-0.34316 -0.37574,-0.57029 -0.2733,-0.50473 0.21011,0.13448 0.92061,1.12867 0.80661,1.12867 -0.0406,0 -0.28056,-0.28077 -0.53331,-0.62394 z m -31.41842,-0.82069 c -0.39865,-0.42065 -0.68789,-0.76481 -0.64276,-0.76481 0.0451,0 0.40823,0.34416 0.80688,0.76481 0.39865,0.42064 0.68789,0.7648 0.64275,0.7648 -0.0451,0 -0.40822,-0.34416 -0.80687,-0.7648 z m 5.41591,0.70064 c 0,-0.0353 0.12925,-0.16914 0.28721,-0.29743 0.2603,-0.2114 0.26611,-0.20539 0.062,0.0642 -0.21439,0.2831 -0.34917,0.37314 -0.34917,0.23326 z m -29.21311,-1.69449 c 0.58672,-0.63607 1.36218,-1.39323 1.72324,-1.68258 0.7518,-0.60248 0.69199,-0.53841 -1.31295,1.40634 -1.33929,1.2991 -1.37756,1.32486 -0.41029,0.27624 z m 30.11577,0.73891 c 0.16337,-0.18695 0.33397,-0.33991 0.37911,-0.33991 0.0451,0 -0.0516,0.15296 -0.215,0.33991 -0.16337,0.18695 -0.33397,0.33991 -0.37911,0.33991 -0.0451,0 0.0516,-0.15296 0.215,-0.33991 z m 22.9766,-1.31961 c -0.90265,-0.90467 -1.34577,-1.40432 -0.98471,-1.11032 0.65483,0.53319 2.84991,2.77642 2.70322,2.76251 -0.0425,-0.004 -0.81585,-0.74752 -1.71851,-1.65219 z m -50.52012,-1.75321 c 0.20362,-0.25525 1.20248,-0.906 1.20248,-0.78341 0,0.0396 -0.31388,0.28637 -0.69751,0.54838 -0.38362,0.26201 -0.61086,0.36777 -0.50497,0.23503 z m 48.17377,-0.22929 c -0.76232,-0.55819 -0.8696,-0.71772 -0.2259,-0.33592 0.30031,0.17813 0.62322,0.41946 0.7176,0.53631 0.24255,0.30028 0.12872,0.25389 -0.4917,-0.20039 z m -28.68173,-0.53131 c -0.30592,-0.25381 -0.30391,-0.25695 0.0507,-0.079 l 0.36927,0.18531 v -2.47036 -2.47036 h -5.74415 -5.74415 v -3.73907 c 0,-3.45281 0.022,-3.73803 0.2872,-3.72564 0.17158,0.008 0.20462,0.0479 0.0821,0.0991 -0.15494,0.0648 -0.20515,0.95574 -0.20515,3.64067 v 3.55494 h 5.74416 5.74415 v 2.63434 c 0,1.44888 -0.0597,2.63434 -0.13275,2.63434 -0.073,0 -0.27611,-0.11894 -0.45133,-0.26432 z m 9.11825,-2.37002 v -2.63434 h 5.74415 5.74415 v -3.55494 c 0,-2.68493 -0.0502,-3.57592 -0.20515,-3.64067 -0.12255,-0.0512 -0.0895,-0.0911 0.0821,-0.0991 0.26522,-0.0124 0.28721,0.27283 0.28721,3.72564 v 3.73907 h -5.74415 -5.74415 v 2.47036 2.47036 l 0.36926,-0.18531 c 0.3546,-0.17796 0.35661,-0.17482 0.0507,0.079 -0.17521,0.14538 -0.37831,0.26432 -0.45132,0.26432 -0.073,0 -0.13275,-1.18546 -0.13275,-2.63434 z m -26.91546,2.04073 c 0,-0.11513 1.33307,-0.80187 1.40731,-0.72499 0.0344,0.0356 -0.26816,0.23118 -0.67237,0.43455 -0.40422,0.20336 -0.73494,0.33406 -0.73494,0.29044 z m 16.57598,-0.34116 c -0.40619,-0.22524 -0.6802,-0.41299 -0.6089,-0.41721 0.17428,-0.0103 1.4295,0.65752 1.4295,0.76058 0,0.11259 0.007,0.11544 -0.8206,-0.34337 z m 27.90017,0 c -0.40619,-0.22524 -0.6802,-0.41299 -0.60891,-0.41721 0.17429,-0.0103 1.4295,0.65752 1.4295,0.76058 0,0.11259 0.007,0.11544 -0.82059,-0.34337 z m -36.63948,0.14238 c 0.11283,-0.0472 0.29746,-0.0472 0.41029,0 0.11284,0.0471 0.0205,0.0857 -0.20514,0.0857 -0.22567,0 -0.31798,-0.0386 -0.20515,-0.0857 z m 1.39813,-0.005 c 0.15968,-0.0431 0.38124,-0.0403 0.49235,0.006 0.11112,0.0466 -0.0195,0.0818 -0.29033,0.0783 -0.27079,-0.003 -0.3617,-0.0416 -0.20202,-0.0846 z m 18.99361,0.0344 c 0,-0.11629 1.00488,-0.63223 1.07996,-0.55448 0.0356,0.0369 -0.19281,0.19424 -0.50761,0.3497 -0.31479,0.15546 -0.57235,0.24761 -0.57235,0.20478 z m 7.42949,-0.0344 c 0.15968,-0.0431 0.38124,-0.0403 0.49235,0.006 0.11112,0.0466 -0.0195,0.0818 -0.29033,0.0783 -0.27079,-0.003 -0.3617,-0.0416 -0.20202,-0.0846 z m 1.39188,0.005 c 0.11283,-0.0472 0.29747,-0.0472 0.4103,0 0.11283,0.0471 0.0205,0.0857 -0.20515,0.0857 -0.22566,0 -0.31798,-0.0386 -0.20515,-0.0857 z m -35.24447,-0.73723 c 0.1354,-0.0906 0.32003,-0.16475 0.41029,-0.16475 0.0903,0 0.0533,0.0741 -0.0821,0.16475 -0.13539,0.0906 -0.32003,0.16475 -0.41029,0.16475 -0.0903,0 -0.0533,-0.0741 0.0821,-0.16475 z m 13.45772,0 c -0.13539,-0.0906 -0.17232,-0.16475 -0.0821,-0.16475 0.0903,0 0.27489,0.0741 0.41029,0.16475 0.1354,0.0906 0.17233,0.16475 0.0821,0.16475 -0.0903,0 -0.2749,-0.0741 -0.4103,-0.16475 z m 14.44244,0 c 0.1354,-0.0906 0.32003,-0.16475 0.4103,-0.16475 0.0903,0 0.0533,0.0741 -0.0821,0.16475 -0.1354,0.0906 -0.32003,0.16475 -0.4103,0.16475 -0.0903,0 -0.0533,-0.0741 0.0821,-0.16475 z m 13.45773,0 c -0.1354,-0.0906 -0.17232,-0.16475 -0.0821,-0.16475 0.0903,0 0.2749,0.0741 0.4103,0.16475 0.1354,0.0906 0.17232,0.16475 0.0821,0.16475 -0.0903,0 -0.2749,-0.0741 -0.4103,-0.16475 z m -40.29112,-0.43103 c 0.27079,-0.12841 0.60313,-0.2311 0.73853,-0.2282 0.1354,0.003 -0.0123,0.10834 -0.32823,0.23434 -0.74932,0.29882 -1.04414,0.29441 -0.4103,-0.006 z m 11.24212,0.006 c -0.31592,-0.126 -0.46363,-0.23145 -0.32823,-0.23434 0.13539,-0.003 0.46774,0.0998 0.73853,0.2282 0.63384,0.30055 0.33902,0.30496 -0.4103,0.006 z m 27.90017,0 c -0.31593,-0.126 -0.46363,-0.23145 -0.32824,-0.23434 0.1354,-0.003 0.46774,0.0998 0.73854,0.2282 0.63383,0.30055 0.33902,0.30496 -0.4103,0.006 z m -10.99595,-0.085 c 0.1354,-0.0906 0.35696,-0.16055 0.49236,-0.15541 0.16232,0.006 0.13437,0.0591 -0.0821,0.15541 -0.45118,0.20077 -0.7103,0.20077 -0.4103,0 z m -26.94622,-0.28606 c 0.11847,-0.0491 0.26002,-0.0431 0.31456,0.0134 0.0545,0.0565 -0.0424,0.0966 -0.21541,0.0893 -0.19119,-0.008 -0.23008,-0.0484 -0.0992,-0.10268 z m 9.02652,0 c 0.11847,-0.0491 0.26003,-0.0431 0.31456,0.0134 0.0545,0.0565 -0.0424,0.0966 -0.2154,0.0893 -0.19119,-0.008 -0.23008,-0.0484 -0.0992,-0.10268 z m 18.87364,0 c 0.11848,-0.0491 0.26003,-0.0431 0.31456,0.0134 0.0545,0.0565 -0.0424,0.0966 -0.2154,0.0893 -0.19119,-0.008 -0.23008,-0.0484 -0.0992,-0.10268 z m 9.02653,0 c 0.11847,-0.0491 0.26002,-0.0431 0.31456,0.0134 0.0545,0.0565 -0.0424,0.0966 -0.21541,0.0893 -0.19119,-0.008 -0.23008,-0.0484 -0.0992,-0.10268 z m -36.27022,-0.16996 c 0.11847,-0.0491 0.26003,-0.043 0.31456,0.0134 0.0545,0.0565 -0.0424,0.0966 -0.2154,0.0893 -0.19119,-0.008 -0.23008,-0.0484 -0.0992,-0.10269 z m 7.71358,0 c 0.11847,-0.0491 0.26002,-0.043 0.31456,0.0134 0.0545,0.0565 -0.0424,0.0966 -0.21541,0.0893 -0.19119,-0.008 -0.23008,-0.0484 -0.0991,-0.10269 z m 20.18659,0 c 0.11847,-0.0491 0.26002,-0.043 0.31456,0.0134 0.0545,0.0565 -0.0424,0.0966 -0.21541,0.0893 -0.19119,-0.008 -0.23008,-0.0484 -0.0991,-0.10269 z m 7.71357,0 c 0.11847,-0.0491 0.26003,-0.043 0.31456,0.0134 0.0545,0.0565 -0.0424,0.0966 -0.2154,0.0893 -0.19119,-0.008 -0.23008,-0.0484 -0.0992,-0.10269 z m -34.88234,-0.17163 c 0.15968,-0.0431 0.38124,-0.0403 0.49236,0.006 0.11111,0.0466 -0.0195,0.0818 -0.29033,0.0784 -0.2708,-0.003 -0.36171,-0.0415 -0.20203,-0.0846 z m 6.07239,0 c 0.15968,-0.0431 0.38124,-0.0403 0.49236,0.006 0.11111,0.0466 -0.0195,0.0818 -0.29034,0.0784 -0.27079,-0.003 -0.3617,-0.0415 -0.20202,-0.0846 z m 21.82778,0 c 0.15968,-0.0431 0.38124,-0.0403 0.49235,0.006 0.11112,0.0466 -0.0195,0.0818 -0.29033,0.0784 -0.27079,-0.003 -0.36171,-0.0415 -0.20202,-0.0846 z m 6.07239,0 c 0.15968,-0.0431 0.38124,-0.0403 0.49235,0.006 0.11111,0.0466 -0.0195,0.0818 -0.29033,0.0784 -0.2708,-0.003 -0.36171,-0.0415 -0.20202,-0.0846 z m -32.74479,-0.17213 c 0.20309,-0.0405 0.53543,-0.0405 0.73853,0 0.2031,0.0405 0.0369,0.0737 -0.36927,0.0737 -0.40619,0 -0.57236,-0.0331 -0.36926,-0.0737 z m 3.28237,0 c 0.2031,-0.0405 0.53544,-0.0405 0.73853,0 0.2031,0.0405 0.0369,0.0737 -0.36926,0.0737 -0.4062,0 -0.57237,-0.0331 -0.36927,-0.0737 z m 24.61779,0 c 0.2031,-0.0405 0.53544,-0.0405 0.73854,0 0.20309,0.0405 0.0369,0.0737 -0.36927,0.0737 -0.40619,0 -0.57236,-0.0331 -0.36927,-0.0737 z m 3.28238,0 c 0.20309,-0.0405 0.53543,-0.0405 0.73853,0 0.2031,0.0405 0.0369,0.0737 -0.36927,0.0737 -0.40619,0 -0.57236,-0.0331 -0.36926,-0.0737 z m -30.35169,-9.85368 c 0.11847,-0.0491 0.26002,-0.043 0.31456,0.0134 0.0545,0.0565 -0.0424,0.0966 -0.21541,0.0893 -0.19119,-0.008 -0.23008,-0.0484 -0.0992,-0.10269 z m 30.03371,0 c 0.11847,-0.0491 0.26002,-0.043 0.31456,0.0134 0.0545,0.0565 -0.0424,0.0966 -0.21541,0.0893 -0.19119,-0.008 -0.23008,-0.0484 -0.0992,-0.10269 z m -29.37724,-0.16995 c 0.11847,-0.0491 0.26003,-0.0431 0.31456,0.0134 0.0545,0.0565 -0.0424,0.0966 -0.2154,0.0893 -0.19119,-0.008 -0.23008,-0.0484 -0.0992,-0.10268 z m 28.72076,0 c 0.11847,-0.0491 0.26003,-0.0431 0.31456,0.0134 0.0545,0.0565 -0.0424,0.0966 -0.2154,0.0893 -0.19119,-0.008 -0.23008,-0.0484 -0.0992,-0.10268 z m -28.06428,-0.16996 c 0.11847,-0.0491 0.26002,-0.0431 0.31456,0.0134 0.0545,0.0565 -0.0424,0.0966 -0.21541,0.0893 -0.19119,-0.008 -0.23008,-0.0484 -0.0992,-0.10268 z m 27.40781,0 c 0.11847,-0.0491 0.26002,-0.0431 0.31456,0.0134 0.0545,0.0565 -0.0424,0.0966 -0.21541,0.0893 -0.19119,-0.008 -0.23008,-0.0484 -0.0992,-0.10268 z m -26.7616,-0.16642 c 0.11283,-0.0472 0.29747,-0.0472 0.4103,0 0.11283,0.0472 0.0205,0.0857 -0.20515,0.0857 -0.22566,0 -0.31798,-0.0386 -0.20515,-0.0857 z m 25.93075,0 c 0.11283,-0.0472 0.29746,-0.0472 0.41029,0 0.11283,0.0472 0.0205,0.0857 -0.20515,0.0857 -0.22566,0 -0.31798,-0.0386 -0.20514,-0.0857 z m -25.11015,-0.16996 c 0.11283,-0.0471 0.29746,-0.0471 0.41029,0 0.11283,0.0472 0.0205,0.0857 -0.20515,0.0857 -0.22566,0 -0.31798,-0.0386 -0.20514,-0.0857 z m 24.46393,-0.004 c 0.11847,-0.0491 0.26002,-0.043 0.31456,0.0134 0.0545,0.0565 -0.0424,0.0967 -0.21541,0.0893 -0.19119,-0.008 -0.23007,-0.0484 -0.0992,-0.10269 z m -23.63308,-0.16995 c 0.11847,-0.0491 0.26002,-0.0431 0.31456,0.0134 0.0545,0.0565 -0.0424,0.0966 -0.21541,0.0893 -0.19119,-0.008 -0.23008,-0.0484 -0.0991,-0.10268 z m 22.80223,0.004 c 0.11283,-0.0472 0.29746,-0.0472 0.41029,0 0.11284,0.0472 0.0205,0.0857 -0.20514,0.0857 -0.22567,0 -0.31798,-0.0386 -0.20515,-0.0857 z m -21.98164,-0.1735 c 0.11847,-0.0491 0.26003,-0.0431 0.31456,0.0134 0.0545,0.0565 -0.0424,0.0966 -0.21541,0.0893 -0.19118,-0.008 -0.23007,-0.0484 -0.0992,-0.10268 z m 21.16104,0.004 c 0.11284,-0.0472 0.29747,-0.0472 0.4103,0 0.11283,0.0472 0.0205,0.0857 -0.20515,0.0857 -0.22566,0 -0.31798,-0.0386 -0.20515,-0.0857 z m -20.51482,-0.16996 c 0.11283,-0.0472 0.29746,-0.0472 0.41029,0 0.11284,0.0471 0.0205,0.0857 -0.20514,0.0857 -0.22567,0 -0.31798,-0.0386 -0.20515,-0.0857 z m 19.69423,0 c 0.11283,-0.0472 0.29747,-0.0472 0.4103,0 0.11283,0.0471 0.0205,0.0857 -0.20515,0.0857 -0.22566,0 -0.31798,-0.0386 -0.20515,-0.0857 z m -18.70952,-0.16996 c 0.11283,-0.0471 0.29746,-0.0471 0.4103,0 0.11283,0.0472 0.0205,0.0857 -0.20515,0.0857 -0.22567,0 -0.31798,-0.0386 -0.20515,-0.0857 z m 17.88893,0 c 0.11283,-0.0471 0.29746,-0.0471 0.4103,0 0.11283,0.0472 0.0205,0.0857 -0.20515,0.0857 -0.22567,0 -0.31798,-0.0386 -0.20515,-0.0857 z M 161.1752,103.4904 c 0.15969,-0.0431 0.38125,-0.0403 0.49236,0.006 0.11111,0.0465 -0.0195,0.0818 -0.29033,0.0783 -0.2708,-0.003 -0.36171,-0.0416 -0.20203,-0.0846 z m 15.91951,0 c 0.15968,-0.0431 0.38124,-0.0403 0.49236,0.006 0.11111,0.0465 -0.0195,0.0818 -0.29033,0.0783 -0.2708,-0.003 -0.36171,-0.0416 -0.20203,-0.0846 z m -14.85236,-0.1726 c 0.35774,-0.0711 0.34552,-0.10617 -0.30322,-0.86913 -0.37179,-0.43725 -0.74671,-0.94796 -0.83315,-1.13492 -0.0864,-0.18695 0.013,-0.11047 0.22093,0.16996 0.20795,0.28043 0.61822,0.78682 0.91171,1.12532 0.64958,0.7492 0.6584,0.83559 0.0823,0.80604 -0.39216,-0.0201 -0.40246,-0.0329 -0.0786,-0.0973 z m 13.65938,-0.0162 c 0,-0.0751 0.27695,-0.40018 0.61544,-0.72232 l 0.61545,-0.5857 -0.55214,0.62298 c -0.55117,0.62189 -0.55146,0.6231 -0.16412,0.69917 0.35594,0.0699 0.35071,0.0781 -0.0633,0.0993 -0.24823,0.0127 -0.45132,-0.0383 -0.45132,-0.11347 z m 1.39686,-1.79696 c 0.15514,-0.2452 0.31311,-0.44582 0.35103,-0.44582 0.11872,0 -0.26339,0.65501 -0.45285,0.77627 -0.0991,0.0635 -0.0533,-0.0853 0.10182,-0.33045 z m -16.74984,-1.14145 c -0.14437,-0.28911 -0.23336,-0.555835 -0.19775,-0.592713 0.0356,-0.03688 0.18757,0.199672 0.33769,0.525663 0.33752,0.73298 0.22057,0.78901 -0.13994,0.0671 z m 17.43653,-0.0671 c 0.15011,-0.325991 0.30207,-0.562541 0.33768,-0.525663 0.0751,0.07775 -0.42313,1.118383 -0.53543,1.118383 -0.0413,0 0.0476,-0.26672 0.19775,-0.59272 z m -17.90072,-1.028446 c -0.0563,-0.151891 -0.0977,-0.365512 -0.0919,-0.474712 0.006,-0.109201 0.0812,-0.01536 0.16765,0.208533 0.0865,0.223893 0.12785,0.437514 0.0919,0.474712 -0.0359,0.0372 -0.11136,-0.05664 -0.16764,-0.208533 z m 18.293,0.176528 c 0.0171,-0.321937 0.29061,-0.864037 0.30014,-0.59485 0.005,0.140214 -0.0626,0.369657 -0.15007,0.509872 -0.0875,0.140214 -0.15504,0.178455 -0.15007,0.08498 z M 159.6799,97.65936 c 0,-0.233691 0.0373,-0.329292 0.0828,-0.212446 0.0455,0.116845 0.0455,0.308047 0,0.424893 -0.0455,0.116846 -0.0828,0.02124 -0.0828,-0.212447 z m 19.20188,0 c 0,-0.233691 0.0373,-0.329292 0.0828,-0.212446 0.0455,0.116845 0.0455,0.308047 0,0.424893 -0.0455,0.116846 -0.0828,0.02124 -0.0828,-0.212447 z m -19.33457,-2.039488 c 0,-0.79455 0.0283,-1.119594 0.0628,-0.722319 0.0346,0.397276 0.0346,1.047363 0,1.444638 -0.0345,0.397275 -0.0628,0.07223 -0.0628,-0.722319 z m 19.53012,0 c 0,-0.79455 0.0283,-1.119594 0.0628,-0.722319 0.0345,0.397276 0.0345,1.047363 0,1.444638 -0.0345,0.397275 -0.0628,0.07223 -0.0628,-0.722319 z M 159.6799,93.580384 c 0,-0.233691 0.0373,-0.329292 0.0828,-0.212447 0.0455,0.116846 0.0455,0.308048 0,0.424894 -0.0455,0.116845 -0.0828,0.02124 -0.0828,-0.212447 z m 19.20188,0 c 0,-0.233691 0.0373,-0.329292 0.0828,-0.212447 0.0455,0.116846 0.0455,0.308048 0,0.424894 -0.0455,0.116845 -0.0828,0.02124 -0.0828,-0.212447 z m -17.91974,-3.389681 c 0.0939,-0.181747 0.25189,-0.382366 0.35104,-0.445819 0.0991,-0.06345 0.0533,0.08525 -0.10182,0.330449 -0.3285,0.519196 -0.49861,0.597943 -0.24922,0.11537 z m 16.50067,-0.11537 c -0.15515,-0.245201 -0.20096,-0.393903 -0.10182,-0.330449 0.18946,0.121257 0.57157,0.776268 0.45285,0.776268 -0.0379,0 -0.19589,-0.200619 -0.35103,-0.445819 z m -2.73075,-0.191521 c -0.20414,-0.269562 -0.19833,-0.275573 0.062,-0.06417 0.27338,0.222027 0.36032,0.361593 0.22524,0.361593 -0.0341,0 -0.16332,-0.133841 -0.28721,-0.297425 z M 161.8815,88.975486 c 0.26424,-0.335995 0.51358,-0.582106 0.55408,-0.546914 0.0405,0.03519 -0.17569,0.310098 -0.48044,0.610901 l -0.55409,0.546914 z m 14.8284,0.05854 -0.39788,-0.467382 0.45133,0.41203 c 0.42183,0.385104 0.52659,0.522735 0.39788,0.522735 -0.0294,0 -0.2325,-0.210322 -0.45133,-0.467383 z m -1.13649,-1.109321 c -0.31598,-0.301269 -0.7591,-0.683813 -0.98471,-0.850097 -0.33029,-0.243426 -0.33996,-0.268034 -0.0496,-0.126295 0.42271,0.206365 1.93716,1.535501 1.7419,1.528753 -0.0732,-0.0025 -0.3916,-0.251091 -0.70757,-0.552361 z m -12.63705,-0.03789 c 0.212,-0.233691 0.42238,-0.424893 0.46751,-0.424893 0.0451,0 -0.0914,0.191202 -0.30339,0.424893 -0.212,0.233692 -0.42239,0.424894 -0.46752,0.424894 -0.0451,0 0.0914,-0.191202 0.3034,-0.424894 z m 0.72746,-0.576307 c 0.1171,-0.196198 0.7496,-0.591907 0.7496,-0.468963 0,0.03928 -0.19372,0.202862 -0.4305,0.363523 -0.23678,0.160662 -0.38037,0.20811 -0.3191,0.10544 z m 8.95554,-1.208245 c -0.1354,-0.09061 -0.17233,-0.164752 -0.0821,-0.164752 0.0903,0 0.27489,0.07414 0.41029,0.164752 0.1354,0.09061 0.17233,0.164753 0.0821,0.164753 -0.0903,0 -0.2749,-0.07414 -0.41029,-0.164753 z m -6.40063,-0.169957 c 0.1354,-0.09061 0.35696,-0.160548 0.49235,-0.155409 0.16233,0.0062 0.13438,0.0591 -0.0821,0.155409 -0.45118,0.200774 -0.7103,0.200774 -0.4103,0 z m 5.71338,-0.1161 c 0.11847,-0.0491 0.26002,-0.04306 0.31456,0.01342 0.0545,0.05648 -0.0424,0.09664 -0.21541,0.08926 -0.19119,-0.0082 -0.23007,-0.04843 -0.0992,-0.102682 z m -4.75944,-0.169958 c 0.11847,-0.0491 0.26002,-0.04306 0.31456,0.01342 0.0545,0.05647 -0.0424,0.09664 -0.21541,0.08926 -0.19119,-0.0082 -0.23007,-0.04843 -0.0991,-0.102683 z m 4.10296,0 c 0.11848,-0.0491 0.26003,-0.04306 0.31456,0.01342 0.0545,0.05647 -0.0424,0.09664 -0.2154,0.08926 -0.19119,-0.0082 -0.23008,-0.04843 -0.0992,-0.102683 z m -2.71821,-0.178782 c 0.42876,-0.03501 1.13037,-0.03501 1.55913,0 0.42876,0.03501 0.078,0.06366 -0.77957,0.06366 -0.85752,0 -1.20832,-0.02864 -0.77956,-0.06366 z"
         id="path21" /><path
         style="fill:#d6abb6"
         d="m 135.3234,212.08441 c 0.65442,-0.0323 1.72529,-0.0323 2.37972,0 0.65442,0.0323 0.11898,0.0587 -1.18986,0.0587 -1.30885,0 -1.84429,-0.0264 -1.18986,-0.0587 z m -5.33073,-0.16154 c 0.15968,-0.0431 0.38124,-0.0403 0.49235,0.006 0.11112,0.0465 -0.0195,0.0818 -0.29033,0.0783 -0.27079,-0.003 -0.36171,-0.0416 -0.20202,-0.0846 z m 10.7569,0.002 c 0.11847,-0.0491 0.26003,-0.0431 0.31456,0.0134 0.0545,0.0565 -0.0424,0.0966 -0.21541,0.0893 -0.19118,-0.008 -0.23007,-0.0484 -0.0991,-0.10268 z m -14.36751,-0.17164 c 0.15968,-0.0431 0.38124,-0.0403 0.49235,0.006 0.11112,0.0465 -0.0195,0.0818 -0.29033,0.0784 -0.27079,-0.003 -0.36171,-0.0416 -0.20202,-0.0846 z m -3.44649,-0.16996 c 0.15968,-0.0431 0.38124,-0.0403 0.49235,0.006 0.11111,0.0466 -0.0195,0.0818 -0.29033,0.0784 -0.2708,-0.003 -0.36171,-0.0416 -0.20202,-0.0846 z m 28.02013,-3.5045 c 0,-0.0292 0.24002,-0.27781 0.53338,-0.55236 l 0.53339,-0.49918 -0.48203,0.55236 c -0.44932,0.51488 -0.58474,0.63048 -0.58474,0.49918 z m -17.27349,-2.45152 c 0.47389,-0.0343 1.24935,-0.0343 1.72325,0 0.47389,0.0343 0.0862,0.0624 -0.86163,0.0624 -0.94778,0 -1.33551,-0.0281 -0.86162,-0.0624 z m -3.93885,-0.15722 c 0.11284,-0.0471 0.29747,-0.0471 0.4103,0 0.11283,0.0472 0.0205,0.0857 -0.20515,0.0857 -0.22566,0 -0.31798,-0.0386 -0.20515,-0.0857 z m -4.25682,-0.34346 c 0.11847,-0.0491 0.26002,-0.043 0.31456,0.0134 0.0545,0.0565 -0.0424,0.0967 -0.21541,0.0893 -0.19119,-0.008 -0.23007,-0.0484 -0.0991,-0.10269 z m 11.4883,-3.22919 c 0.11847,-0.0491 0.26003,-0.0431 0.31456,0.0134 0.0545,0.0565 -0.0424,0.0966 -0.2154,0.0893 -0.19119,-0.008 -0.23008,-0.0484 -0.0992,-0.10269 z m 17.27619,-0.66287 c 0.008,-0.19799 0.0468,-0.23826 0.0992,-0.10268 0.0474,0.12269 0.0416,0.26928 -0.013,0.32575 -0.0545,0.0565 -0.0933,-0.0439 -0.0862,-0.22307 z m 0,-1.1897 c 0.008,-0.19799 0.0468,-0.23826 0.0992,-0.10268 0.0474,0.12269 0.0416,0.26928 -0.013,0.32575 -0.0545,0.0565 -0.0933,-0.0439 -0.0862,-0.22307 z m 46.92497,-2.96542 c 0,-0.0905 0.11078,-0.16463 0.24617,-0.16463 0.1354,0 0.24618,0.0301 0.24618,0.0668 0,0.0367 -0.11078,0.11082 -0.24618,0.16462 -0.13539,0.0538 -0.24617,0.0238 -0.24617,-0.0668 z m -60.91879,-7.07902 c 0.11848,-0.0491 0.26003,-0.0431 0.31456,0.0134 0.0545,0.0565 -0.0424,0.0966 -0.2154,0.0893 -0.19119,-0.008 -0.23008,-0.0484 -0.0992,-0.10268 z m 79.01877,-1.15858 c 0.001,-0.46738 0.0331,-0.63841 0.0708,-0.38007 0.0377,0.25835 0.0367,0.64075 -0.002,0.84979 -0.0389,0.20904 -0.0698,-0.002 -0.0686,-0.46972 z m -74.58756,-2.58048 c 0.11847,-0.0491 0.26002,-0.0431 0.31456,0.0134 0.0545,0.0565 -0.0424,0.0966 -0.21541,0.0893 -0.19119,-0.008 -0.23008,-0.0484 -0.0991,-0.10268 z m -6.41089,-0.1738 c 0.2031,-0.0405 0.53544,-0.0405 0.73854,0 0.20309,0.0405 0.0369,0.0737 -0.36927,0.0737 -0.40619,0 -0.57236,-0.0331 -0.36927,-0.0737 z m 2.62884,-0.003 c 0.29498,-0.0378 0.7381,-0.037 0.98471,0.002 0.24661,0.0388 0.005,0.0697 -0.53632,0.0688 -0.54159,-9.6e-4 -0.74337,-0.0327 -0.44839,-0.0705 z m -18.67143,-1.64057 c 0,-0.0353 0.12924,-0.16913 0.28721,-0.29742 0.2603,-0.21141 0.2661,-0.2054 0.062,0.0642 -0.2144,0.28311 -0.34917,0.37314 -0.34917,0.23326 z m 94.76291,-1.33798 -0.31264,-0.3824 0.36926,0.32376 c 0.34702,0.30426 0.44398,0.44105 0.31265,0.44105 -0.0311,0 -0.19732,-0.17209 -0.36927,-0.38241 z m -83.79774,-2.96288 c 0.11848,-0.0491 0.26003,-0.0431 0.31456,0.0134 0.0545,0.0565 -0.0424,0.0967 -0.2154,0.0893 -0.19119,-0.008 -0.23008,-0.0484 -0.0992,-0.10268 z m 14.9348,0 c 0.11847,-0.0491 0.26002,-0.0431 0.31456,0.0134 0.0545,0.0565 -0.0424,0.0967 -0.21541,0.0893 -0.19119,-0.008 -0.23007,-0.0484 -0.0992,-0.10268 z m -12.97563,-0.16642 c 0.11283,-0.0472 0.29746,-0.0472 0.4103,0 0.11283,0.0471 0.0205,0.0857 -0.20515,0.0857 -0.22567,0 -0.31798,-0.0386 -0.20515,-0.0857 z m 9.76506,-0.005 c 0.15796,-0.0427 0.41645,-0.0427 0.57441,0 0.15797,0.0428 0.0287,0.0777 -0.2872,0.0777 -0.31593,0 -0.44518,-0.035 -0.28721,-0.0777 z"
         id="path20" /><path
         style="fill:#a6a6a6"
         d="m 150.77064,154.12769 c -0.20414,-0.26957 -0.19833,-0.27558 0.062,-0.0642 0.15796,0.12829 0.28721,0.26213 0.28721,0.29742 0,0.13988 -0.13478,0.0498 -0.34918,-0.23325 z m -2.44645,-2.37941 -0.89704,-0.97725 0.94368,0.92896 c 0.87671,0.86303 1.01886,1.02555 0.89704,1.02555 -0.0256,0 -0.4503,-0.43977 -0.94368,-0.97726 z m 41.03526,0.96662 c 0,-0.0467 0.44313,-0.53908 0.98472,-1.09409 0.54159,-0.555 0.98471,-0.97086 0.98471,-0.92412 0,0.0467 -0.44312,0.53907 -0.98471,1.09408 -0.54159,0.55501 -0.98472,0.97086 -0.98472,0.92413 z m -49.8791,-17.76407 c 0.008,-0.19799 0.0468,-0.23826 0.0992,-0.10268 0.0474,0.12269 0.0416,0.26928 -0.0129,0.32575 -0.0545,0.0565 -0.0933,-0.0439 -0.0862,-0.22307 z m 59.57506,0 c 0.008,-0.19799 0.0468,-0.23826 0.0992,-0.10268 0.0474,0.12269 0.0416,0.26928 -0.013,0.32575 -0.0545,0.0565 -0.0933,-0.0439 -0.0862,-0.22307 z m -59.57506,-3.05923 c 0.008,-0.19799 0.0468,-0.23826 0.0992,-0.10268 0.0474,0.12269 0.0416,0.26927 -0.0129,0.32575 -0.0545,0.0565 -0.0933,-0.0439 -0.0862,-0.22307 z m 59.57506,0 c 0.008,-0.19799 0.0468,-0.23826 0.0992,-0.10268 0.0474,0.12269 0.0416,0.26927 -0.013,0.32575 -0.0545,0.0565 -0.0933,-0.0439 -0.0862,-0.22307 z m -31.9421,-15.53693 c 0,-3.31842 0.022,-4.67595 0.0488,-3.01675 0.0269,1.65921 0.0269,4.37428 0,6.03349 -0.0269,1.65921 -0.0488,0.30167 -0.0488,-3.01674 z m 4.4312,0 c 0,-3.31842 0.022,-4.67595 0.0488,-3.01675 0.0269,1.65921 0.0269,4.37428 0,6.03349 -0.0269,1.65921 -0.0488,0.30167 -0.0488,-3.01674 z m -16.36276,0.56727 c 0.11283,-0.0472 0.29747,-0.0472 0.4103,0 0.11283,0.0471 0.0205,0.0857 -0.20515,0.0857 -0.22566,0 -0.31798,-0.0386 -0.20515,-0.0857 z m 27.90017,0 c 0.11283,-0.0472 0.29746,-0.0472 0.41029,0 0.11284,0.0471 0.0205,0.0857 -0.20514,0.0857 -0.22567,0 -0.31798,-0.0386 -0.20515,-0.0857 z m -17.55044,-11.90056 c 0.11848,-0.0491 0.26003,-0.043 0.31456,0.0134 0.0545,0.0565 -0.0424,0.0966 -0.2154,0.0893 -0.19119,-0.008 -0.23008,-0.0484 -0.0992,-0.10269 z m 1.55702,-0.90364 c 0,-0.51412 0.0308,-0.72444 0.0684,-0.46738 0.0376,0.25706 0.0376,0.6777 0,0.93476 -0.0376,0.25706 -0.0684,0.0467 -0.0684,-0.46738 z m 4.43121,0 c 0,-0.51412 0.0308,-0.72444 0.0684,-0.46738 0.0376,0.25706 0.0376,0.6777 0,0.93476 -0.0376,0.25706 -0.0684,0.0467 -0.0684,-0.46738 z"
         id="path19" /><path
         style="fill:#c56e85"
         d="m 118.5833,227.88917 c 27.91452,-0.0237 73.59284,-0.0237 101.50737,0 27.91452,0.0237 5.07537,0.043 -50.75369,0.043 -55.82905,0 -78.668208,-0.0194 -50.75368,-0.043 z m 14.52675,-15.80052 c 0.24947,-0.0391 0.61874,-0.038 0.8206,0.002 0.20185,0.0403 -0.002,0.0723 -0.45359,0.071 -0.45132,-0.001 -0.61648,-0.0343 -0.36701,-0.0733 z m 5.90914,0.004 c 0.15968,-0.0431 0.38124,-0.0403 0.49236,0.006 0.11111,0.0466 -0.0195,0.0818 -0.29033,0.0784 -0.2708,-0.003 -0.36171,-0.0416 -0.20203,-0.0846 z m -10.01436,-0.16934 c 0.15797,-0.0427 0.41645,-0.0427 0.57442,0 0.15796,0.0428 0.0287,0.0777 -0.28721,0.0777 -0.31593,0 -0.44517,-0.035 -0.28721,-0.0777 z m -3.44337,-0.17058 c 0.15969,-0.0431 0.38125,-0.0403 0.49236,0.006 0.11111,0.0465 -0.0195,0.0818 -0.29033,0.0784 -0.2708,-0.003 -0.36171,-0.0416 -0.20203,-0.0846 z m -3.69388,-0.17238 c 0.20415,-0.0406 0.49957,-0.0391 0.65648,0.003 0.15691,0.0425 -0.0101,0.0758 -0.37118,0.0739 -0.36106,-0.002 -0.48944,-0.0367 -0.2853,-0.0773 z m 40.31952,-4.29869 c 0,-2.38365 0.0231,-3.35878 0.0513,-2.16695 0.0282,1.19182 0.0282,3.14208 0,4.33391 -0.0282,1.19182 -0.0513,0.21669 -0.0513,-2.16696 z m 14.27715,0.50987 c 0,-2.10322 0.0236,-2.96363 0.0524,-1.91202 0.0288,1.05162 0.0288,2.77243 0,3.82404 -0.0288,1.05162 -0.0524,0.19121 -0.0524,-1.91202 z m 10.18384,-11.81203 c 1e-5,-8.50637 0.02,-11.96135 0.0444,-7.67774 0.0244,4.28361 0.0244,11.24336 -1e-5,15.46612 -0.0244,4.22276 -0.0444,0.71798 -0.0444,-7.78838 z m -94.633737,10.91771 c 0.06885,-0.0712 2.96396,-0.10943 6.43357,-0.0849 l 6.308377,0.0446 -6.433565,0.0849 c -3.538463,0.0467 -6.377235,0.0266 -6.308382,-0.0446 z m 141.575067,0.0445 -6.40062,-0.091 6.34991,-0.0395 c 4.09787,-0.0255 6.38588,0.0208 6.45134,0.13047 0.0558,0.0935 0.0786,0.15219 0.0507,0.13047 -0.0279,-0.0217 -2.931,-0.0804 -6.45135,-0.13047 z m -103.1044,-1.47744 c 0.15968,-0.0431 0.38124,-0.0403 0.49236,0.006 0.11111,0.0465 -0.0195,0.0818 -0.29033,0.0784 -0.2708,-0.003 -0.36171,-0.0416 -0.20203,-0.0846 z m -2.5367,-0.16828 c 0.11847,-0.0491 0.26002,-0.0431 0.31456,0.0134 0.0545,0.0565 -0.0424,0.0966 -0.21541,0.0893 -0.19119,-0.008 -0.23008,-0.0484 -0.0992,-0.10268 z m -1.96943,-0.16996 c 0.11848,-0.0491 0.26003,-0.043 0.31456,0.0134 0.0545,0.0565 -0.0424,0.0967 -0.2154,0.0893 -0.19119,-0.008 -0.23008,-0.0484 -0.0992,-0.10269 z m 10.5036,-3.22919 c 0.11847,-0.0491 0.26002,-0.0431 0.31456,0.0134 0.0545,0.0565 -0.0424,0.0966 -0.21541,0.0893 -0.19119,-0.008 -0.23008,-0.0484 -0.0991,-0.10269 z m -2.13355,-0.16995 c 0.11848,-0.0491 0.26003,-0.0431 0.31456,0.0134 0.0545,0.0565 -0.0424,0.0966 -0.2154,0.0893 -0.19119,-0.008 -0.23008,-0.0484 -0.0992,-0.10268 z m -11.79819,-4.60022 -0.39787,-0.46738 0.45132,0.41203 c 0.42184,0.3851 0.52659,0.52273 0.39788,0.52273 -0.0294,0 -0.2325,-0.21032 -0.45133,-0.46738 z m 94.0524,-1.97619 c 0,-0.0353 0.12924,-0.16913 0.2872,-0.29742 0.26031,-0.21141 0.26611,-0.2054 0.062,0.0642 -0.2144,0.2831 -0.34917,0.37313 -0.34917,0.23325 z m -64.51956,-0.40321 c -0.20414,-0.26956 -0.19833,-0.27557 0.062,-0.0642 0.15796,0.12829 0.2872,0.26213 0.2872,0.29743 0,0.13988 -0.13477,0.0498 -0.34917,-0.23326 z M 151.263,193.8977 c -0.20414,-0.26956 -0.19834,-0.27557 0.062,-0.0642 0.15797,0.1283 0.28721,0.26214 0.28721,0.29743 0,0.13988 -0.13477,0.0499 -0.34917,-0.23326 z m -10.51343,-3.89765 c 0.11847,-0.0491 0.26003,-0.0431 0.31456,0.0134 0.0545,0.0565 -0.0424,0.0966 -0.21541,0.0893 -0.19118,-0.008 -0.23007,-0.0484 -0.0991,-0.10268 z m -2.30792,-0.16642 c 0.11283,-0.0471 0.29747,-0.0471 0.4103,0 0.11283,0.0471 0.0205,0.0857 -0.20515,0.0857 -0.22566,0 -0.31798,-0.0386 -0.20515,-0.0857 z m -1.79505,-0.17349 c 0.11848,-0.0491 0.26003,-0.0431 0.31457,0.0134 0.0545,0.0565 -0.0424,0.0966 -0.21541,0.0893 -0.19119,-0.008 -0.23008,-0.0484 -0.0992,-0.10268 z m -3.27253,-1.03112 c -0.20414,-0.26956 -0.19834,-0.27557 0.062,-0.0642 0.27338,0.22202 0.36032,0.36159 0.22525,0.36159 -0.0341,0 -0.16333,-0.13384 -0.28721,-0.29743 z m 16.07379,-1.85816 c 0.11847,-0.0491 0.26002,-0.0431 0.31456,0.0134 0.0545,0.0565 -0.0424,0.0966 -0.21541,0.0893 -0.19119,-0.008 -0.23008,-0.0484 -0.0992,-0.10268 z m -3.11826,-0.33991 c 0.11848,-0.0491 0.26003,-0.0431 0.31456,0.0134 0.0545,0.0565 -0.0424,0.0967 -0.2154,0.0893 -0.19119,-0.008 -0.23008,-0.0484 -0.0992,-0.10268 z m -9.84711,-0.16996 c 0.11847,-0.0491 0.26002,-0.0431 0.31456,0.0134 0.0545,0.0565 -0.0424,0.0966 -0.21541,0.0893 -0.19119,-0.008 -0.23008,-0.0484 -0.0991,-0.10268 z m 7.46026,-0.002 c 0.15968,-0.0431 0.38124,-0.0403 0.49236,0.006 0.11111,0.0465 -0.0195,0.0818 -0.29034,0.0784 -0.27079,-0.003 -0.3617,-0.0416 -0.20202,-0.0847 z m -4.35035,-0.17238 c 0.20414,-0.0406 0.49956,-0.0391 0.65647,0.003 0.15691,0.0425 -0.0101,0.0758 -0.37118,0.0739 -0.36106,-0.002 -0.48944,-0.0367 -0.28529,-0.0773 z m 11.00429,-5.77445 c 0.11847,-0.0491 0.26002,-0.043 0.31456,0.0134 0.0545,0.0565 -0.0424,0.0967 -0.21541,0.0893 -0.19119,-0.008 -0.23008,-0.0484 -0.0992,-0.10269 z m -1.97968,-0.16641 c 0.11283,-0.0472 0.29746,-0.0472 0.41029,0 0.11283,0.0471 0.0205,0.0857 -0.20515,0.0857 -0.22566,0 -0.31798,-0.0386 -0.20514,-0.0857 z m -13.93983,-0.1735 c 0.11847,-0.0491 0.26003,-0.0431 0.31456,0.0134 0.0545,0.0565 -0.0424,0.0966 -0.2154,0.0893 -0.19119,-0.008 -0.23008,-0.0484 -0.0992,-0.10268 z m 11.23499,-0.002 c 0.15968,-0.0431 0.38124,-0.0403 0.49236,0.006 0.11111,0.0465 -0.0195,0.0818 -0.29033,0.0784 -0.2708,-0.003 -0.36171,-0.0416 -0.20203,-0.0847 z m -6.97816,-0.17801 c 0.56416,-0.0332 1.48732,-0.0332 2.05148,0 0.56416,0.0332 0.10257,0.0603 -1.02574,0.0603 -1.12832,0 -1.5899,-0.0272 -1.02574,-0.0603 z"
         id="path18" /><path
         style="fill:#c62149"
         d="m 131.95897,212.09345 c 0.15796,-0.0427 0.41645,-0.0427 0.57441,0 0.15797,0.0428 0.0287,0.0777 -0.28721,0.0777 -0.31592,0 -0.44517,-0.035 -0.2872,-0.0777 z m 7.80589,0.001 c 0.11847,-0.0491 0.26002,-0.0431 0.31456,0.0134 0.0545,0.0565 -0.0424,0.0966 -0.21541,0.0893 -0.19119,-0.008 -0.23007,-0.0484 -0.0992,-0.10269 z m -11.5775,-0.17163 c 0.15968,-0.0431 0.38124,-0.0403 0.49236,0.006 0.11111,0.0465 -0.0195,0.0818 -0.29033,0.0783 -0.2708,-0.003 -0.36171,-0.0416 -0.20203,-0.0846 z m -3.44649,-0.16996 c 0.15968,-0.0431 0.38124,-0.0403 0.49236,0.006 0.11111,0.0465 -0.0195,0.0818 -0.29033,0.0784 -0.2708,-0.003 -0.36171,-0.0416 -0.20203,-0.0846 z m -3.94197,-0.16933 c 0.15796,-0.0428 0.41645,-0.0428 0.57441,0 0.15797,0.0427 0.0287,0.0777 -0.2872,0.0777 -0.31593,0 -0.44517,-0.035 -0.28721,-0.0777 z m 10.43179,-6.11741 c 0.11847,-0.0491 0.26003,-0.0431 0.31456,0.0134 0.0545,0.0565 -0.0424,0.0966 -0.21541,0.0893 -0.19118,-0.008 -0.23007,-0.0484 -0.0991,-0.10268 z m 6.07239,0 c 0.11847,-0.0491 0.26002,-0.0431 0.31456,0.0134 0.0545,0.0565 -0.0424,0.0966 -0.21541,0.0893 -0.19118,-0.008 -0.23007,-0.0484 -0.0992,-0.10268 z m -8.86241,-0.16996 c 0.11848,-0.0491 0.26003,-0.0431 0.31456,0.0134 0.0545,0.0565 -0.0424,0.0966 -0.2154,0.0893 -0.19119,-0.008 -0.23008,-0.0484 -0.0992,-0.10268 z m -1.96942,-0.16996 c 0.11847,-0.0491 0.26003,-0.043 0.31456,0.0134 0.0545,0.0565 -0.0424,0.0967 -0.21541,0.0893 -0.19118,-0.008 -0.23007,-0.0484 -0.0992,-0.10269 z m 13.81674,-0.28798 c 0,-0.0353 0.12924,-0.16913 0.2872,-0.29742 0.26031,-0.21141 0.26611,-0.2054 0.062,0.0642 -0.2144,0.28311 -0.34917,0.37314 -0.34917,0.23326 z m 36.17839,-5.54442 c 0,-2.66408 0.0227,-3.75394 0.0504,-2.42189 0.0277,1.33204 0.0277,3.51174 0,4.84378 -0.0277,1.33204 -0.0504,0.24219 -0.0504,-2.42189 z m -14.27847,-0.93477 c 8e-5,-2.61734 0.0229,-3.66432 0.0506,-2.32663 0.0278,1.3377 0.0277,3.47916 -1.5e-4,4.75881 -0.0279,1.27964 -0.0506,0.18517 -0.0505,-2.43218 z m -26.19778,3.53798 c 0.11847,-0.0491 0.26003,-0.0431 0.31456,0.0134 0.0545,0.0565 -0.0424,0.0966 -0.21541,0.0893 -0.19118,-0.008 -0.23007,-0.0484 -0.0992,-0.10269 z m 80.12066,-6.23648 c 0,-0.0353 0.12924,-0.16914 0.28721,-0.29743 0.2603,-0.21141 0.2661,-0.20539 0.062,0.0642 -0.2144,0.2831 -0.34917,0.37314 -0.34917,0.23326 z m 0.98471,-1.01975 c 0,-0.0353 0.12925,-0.16913 0.28721,-0.29742 0.2603,-0.21141 0.26611,-0.2054 0.062,0.0642 -0.2144,0.28311 -0.34917,0.37314 -0.34917,0.23326 z m -77.98712,-4.81074 c 0.11848,-0.0491 0.26003,-0.0431 0.31456,0.0134 0.0545,0.0565 -0.0424,0.0966 -0.2154,0.0893 -0.19119,-0.008 -0.23008,-0.0484 -0.0992,-0.10269 z m 65.58057,-1.79592 -0.31264,-0.3824 0.36927,0.32377 c 0.34702,0.30426 0.44398,0.44104 0.31264,0.44104 -0.0311,0 -0.19731,-0.17208 -0.36927,-0.38241 z m -58.8517,-1.60322 c 0.11847,-0.0491 0.26002,-0.0431 0.31456,0.0134 0.0545,0.0565 -0.0424,0.0967 -0.21541,0.0893 -0.19119,-0.008 -0.23008,-0.0484 -0.0991,-0.10268 z m -2.46178,-0.16996 c 0.11847,-0.0491 0.26002,-0.0431 0.31456,0.0134 0.0545,0.0565 -0.0424,0.0966 -0.21541,0.0893 -0.19119,-0.008 -0.23007,-0.0484 -0.0991,-0.10268 z M 98.079725,180.4712 c 2.104855,-0.0269 5.502115,-0.0269 7.549455,7e-5 2.04735,0.0269 0.32519,0.049 -3.82701,0.0489 -4.152202,-3e-5 -5.827302,-0.0221 -3.722445,-0.049 z m 64.803185,-8e-5 c 4.16794,-0.0252 11.0363,-0.0253 15.26303,-1e-5 4.22673,0.0252 0.8166,0.0459 -7.57807,0.0459 -8.39467,1e-5 -11.8529,-0.0206 -7.68496,-0.0459 z m 29.81204,0 c 3.3239,-0.0257 8.7152,-0.0257 11.98066,3e-5 3.26546,0.0257 0.54591,0.0468 -6.04345,0.0468 -6.58937,-2e-5 -9.26111,-0.0211 -5.93721,-0.0468 z m 40.4544,8e-5 c 2.10486,-0.0269 5.50211,-0.0269 7.54946,7e-5 2.04734,0.0269 0.32519,0.049 -3.82701,0.0489 -4.1522,-3e-5 -5.8273,-0.0221 -3.72245,-0.049 z m -98.96452,-0.49863 c 0.11847,-0.0491 0.26002,-0.0431 0.31456,0.0134 0.0545,0.0565 -0.0424,0.0966 -0.21541,0.0893 -0.19119,-0.008 -0.23008,-0.0484 -0.0992,-0.10268 z m 12.46275,0.004 c 0.11283,-0.0472 0.29747,-0.0472 0.4103,0 0.11283,0.0471 0.0205,0.0857 -0.20515,0.0857 -0.22566,0 -0.31798,-0.0386 -0.20515,-0.0857 z m -9.51696,-0.1776 c 0.20415,-0.0407 0.49956,-0.0391 0.65647,0.003 0.15691,0.0425 -0.0101,0.0758 -0.37118,0.0739 -0.36106,-0.002 -0.48944,-0.0367 -0.28529,-0.0773 z m 5.08576,2.6e-4 c 0.2031,-0.0405 0.53544,-0.0405 0.73853,0 0.2031,0.0405 0.0369,0.0737 -0.36926,0.0737 -0.4062,0 -0.57237,-0.0331 -0.36927,-0.0737 z M 169.8185,162.106 c 0.2197,-0.18475 0.62589,-0.46519 0.90265,-0.6232 l 0.5032,-0.28728 -0.39946,0.33591 c -0.2197,0.18475 -0.62589,0.46519 -0.90265,0.6232 l -0.5032,0.28728 z m -1.75344,-0.39182 c -0.5594,-0.37099 -0.74043,-0.62013 -0.24617,-0.33879 0.37655,0.21434 0.96646,0.68674 0.86162,0.68999 -0.0451,0.001 -0.32208,-0.15664 -0.61545,-0.3512 z m -1.93132,-1.27893 c -0.83746,-0.57498 -1.13257,-0.87838 -0.47859,-0.49204 0.5757,0.34009 1.34372,0.93133 1.21712,0.93696 -0.0467,0.002 -0.37908,-0.19814 -0.73853,-0.44492 z m 5.98242,0.14114 c 0.2197,-0.18476 0.62589,-0.4652 0.90265,-0.6232 l 0.5032,-0.28729 -0.39946,0.33591 c -0.2197,0.18475 -0.62589,0.46519 -0.90265,0.6232 l -0.5032,0.28729 z m -9.79525,-2.76856 c -0.38363,-0.28139 -0.6975,-0.54933 -0.6975,-0.59544 0,-0.0461 0.33234,0.15296 0.73853,0.44237 0.40619,0.28941 0.73854,0.56077 0.73854,0.60302 0,0.11698 -0.0311,0.099 -0.77957,-0.44995 z m 13.25258,0.45811 c 0,-0.0467 0.33234,-0.32177 0.73853,-0.61118 0.4062,-0.28941 0.73854,-0.48796 0.73854,-0.44122 0,0.0467 -0.33234,0.32177 -0.73854,0.61118 -0.40619,0.28941 -0.73853,0.48796 -0.73853,0.44122 z m -14.95573,-1.75839 c -0.20414,-0.26956 -0.19834,-0.27558 0.062,-0.0642 0.27338,0.22203 0.36031,0.36159 0.22524,0.36159 -0.0341,0 -0.16332,-0.13384 -0.28721,-0.29742 z m 17.08927,0.23326 c 0,-0.0353 0.12925,-0.16914 0.28721,-0.29743 0.2603,-0.21141 0.26611,-0.20539 0.062,0.0642 -0.2144,0.2831 -0.34917,0.37314 -0.34917,0.23326 z m -17.97099,-0.88549 -0.49235,-0.4381 0.53338,0.36554 c 0.29336,0.20104 0.53339,0.39856 0.53339,0.43894 0,0.12722 -0.0695,0.0829 -0.57442,-0.36638 z m 18.62747,0.37795 c 0,-0.0467 0.22156,-0.24836 0.49235,-0.44804 0.2708,-0.19968 0.49236,-0.32482 0.49236,-0.27808 0,0.0467 -0.22156,0.24835 -0.49236,0.44804 -0.27079,0.19968 -0.49235,0.32482 -0.49235,0.27808 z m -19.55105,-1.08538 c -0.20415,-0.26956 -0.19834,-0.27557 0.062,-0.0642 0.27338,0.22203 0.36032,0.36159 0.22524,0.36159 -0.0341,0 -0.16332,-0.13384 -0.2872,-0.29742 z m 20.69988,0.23326 c 0,-0.0353 0.12924,-0.16914 0.2872,-0.29743 0.26031,-0.2114 0.26611,-0.20539 0.062,0.0642 -0.2144,0.28311 -0.34917,0.37314 -0.34917,0.23326 z m -21.74572,-1.05918 -0.65647,-0.60842 0.6975,0.54025 c 0.60033,0.46498 0.81688,0.689 0.65647,0.67911 -0.0226,-0.001 -0.33644,-0.27631 -0.6975,-0.61094 z m 22.40219,0.55706 c 0,-0.0467 0.29542,-0.32728 0.65648,-0.62342 0.36106,-0.29614 0.65647,-0.50019 0.65647,-0.45345 0,0.0467 -0.29541,0.32727 -0.65647,0.62341 -0.36106,0.29614 -0.65648,0.50019 -0.65648,0.45346 z m -23.96132,-1.82742 -0.73853,-0.69322 0.77956,0.62917 c 0.68338,0.55154 0.88595,0.75937 0.73854,0.75772 -0.0226,-2.5e-4 -0.37337,-0.3124 -0.77957,-0.69367 z m 25.43839,0.64391 c 0,-0.0433 0.34736,-0.37355 0.77192,-0.73382 0.42455,-0.36027 0.71894,-0.56627 0.65419,-0.45778 -0.13796,0.23116 -1.42611,1.30749 -1.42611,1.1916 z m -26.84372,-1.8618 -0.48203,-0.55236 0.53338,0.49918 c 0.29337,0.27455 0.53339,0.52311 0.53339,0.55236 0,0.1313 -0.13542,0.0157 -0.58474,-0.49918 z m 28.48491,0.51665 c 0,-0.0381 0.60929,-0.63431 1.35397,-1.32481 0.74469,-0.69051 1.16935,-1.04155 0.94369,-0.78011 -0.45343,0.52533 -2.29766,2.21486 -2.29766,2.10492 z m -29.86959,-1.74884 c -0.39865,-0.42064 -0.68789,-0.76481 -0.64276,-0.76481 0.0451,0 0.40823,0.34417 0.80687,0.76481 0.39865,0.42064 0.68789,0.76481 0.64276,0.76481 -0.0451,0 -0.40822,-0.34417 -0.80687,-0.76481 z m -1.89251,-1.82704 -0.97957,-1.06223 1.02574,1.01442 c 0.95283,0.94231 1.10084,1.11004 0.97958,1.11004 -0.0254,0 -0.48698,-0.478 -1.02575,-1.06223 z m 36.18754,-0.76481 c 0.93628,-1.05161 1.73479,-1.91202 1.77446,-1.91202 0.10126,0 -2.45735,2.88333 -3.01634,3.39915 -0.25325,0.23369 0.30559,-0.43552 1.24188,-1.48713 z m -37.90564,-1.14721 c -0.39865,-0.42065 -0.68789,-0.76481 -0.64276,-0.76481 0.0451,0 0.40823,0.34416 0.80688,0.76481 0.39864,0.42064 0.68788,0.76481 0.64275,0.76481 -0.0451,0 -0.40822,-0.34417 -0.80687,-0.76481 z m 17.4376,-0.88654 c 0.24823,-0.0389 0.65442,-0.0389 0.90265,0 0.24823,0.0389 0.0451,0.0708 -0.45132,0.0708 -0.49646,0 -0.69956,-0.0319 -0.45133,-0.0708 z m 3.28237,0 c 0.24823,-0.0389 0.65443,-0.0389 0.90266,0 0.24822,0.0389 0.0451,0.0708 -0.45133,0.0708 -0.49646,0 -0.69956,-0.0319 -0.45133,-0.0708 z m -22.13777,-0.85552 c -0.83159,-1.08425 -0.93295,-1.23219 -0.84424,-1.23219 0.0417,0 0.41994,0.45888 0.84052,1.01974 0.42059,0.56086 0.73279,1.01974 0.6938,1.01974 -0.039,0 -0.34953,-0.36328 -0.69008,-0.80729 z m 17.54557,0.68951 c 0.15969,-0.0431 0.38125,-0.0403 0.49236,0.006 0.11111,0.0466 -0.0195,0.0818 -0.29033,0.0784 -0.2708,-0.003 -0.36171,-0.0416 -0.20203,-0.0847 z m 6.40063,0 c 0.15968,-0.0431 0.38124,-0.0403 0.49236,0.006 0.11111,0.0466 -0.0195,0.0818 -0.29033,0.0784 -0.2708,-0.003 -0.36171,-0.0416 -0.20203,-0.0847 z m 17.92754,-0.85947 c 0.43478,-0.58423 0.82017,-1.06223 0.85642,-1.06223 0.11548,0 -0.98058,1.51604 -1.32034,1.82627 -0.17962,0.16401 0.0291,-0.17981 0.46392,-0.76404 z m -25.39806,0.69474 c 0.11283,-0.0472 0.29747,-0.0472 0.4103,0 0.11283,0.0471 0.0205,0.0857 -0.20515,0.0857 -0.22566,0 -0.31798,-0.0386 -0.20515,-0.0857 z m 8.53417,0 c 0.11283,-0.0472 0.29746,-0.0472 0.4103,0 0.11283,0.0471 0.0205,0.0857 -0.20515,0.0857 -0.22567,0 -0.31798,-0.0386 -0.20515,-0.0857 z m -9.18039,-0.1735 c 0.11848,-0.0491 0.26003,-0.0431 0.31456,0.0134 0.0545,0.0565 -0.0424,0.0966 -0.2154,0.0893 -0.19119,-0.008 -0.23008,-0.0484 -0.0992,-0.10268 z m 10.01124,0 c 0.11847,-0.0491 0.26002,-0.0431 0.31456,0.0134 0.0545,0.0565 -0.0424,0.0966 -0.21541,0.0893 -0.19118,-0.008 -0.23007,-0.0484 -0.0992,-0.10268 z m -10.66771,-0.16996 c 0.11847,-0.0491 0.26002,-0.0431 0.31456,0.0134 0.0545,0.0565 -0.0424,0.0966 -0.21541,0.0893 -0.19119,-0.008 -0.23007,-0.0484 -0.0992,-0.10268 z m 11.32418,0 c 0.11848,-0.0491 0.26003,-0.0431 0.31456,0.0134 0.0545,0.0565 -0.0424,0.0966 -0.2154,0.0893 -0.19119,-0.008 -0.23008,-0.0484 -0.0992,-0.10268 z m -11.98066,-0.16996 c 0.11848,-0.0491 0.26003,-0.0431 0.31456,0.0134 0.0545,0.0565 -0.0424,0.0966 -0.2154,0.0893 -0.19119,-0.008 -0.23008,-0.0484 -0.0992,-0.10269 z m 12.63714,0 c 0.11847,-0.0491 0.26002,-0.0431 0.31456,0.0134 0.0545,0.0565 -0.0424,0.0966 -0.21541,0.0893 -0.19119,-0.008 -0.23007,-0.0484 -0.0992,-0.10269 z m -14.41167,-0.56372 c -0.1354,-0.0906 -0.17232,-0.16476 -0.0821,-0.16476 0.0903,0 0.2749,0.0741 0.4103,0.16476 0.1354,0.0906 0.17232,0.16475 0.0821,0.16475 -0.0903,0 -0.2749,-0.0741 -0.4103,-0.16475 z m 16.08363,0 c 0.13539,-0.0906 0.32003,-0.16476 0.41029,-0.16476 0.0903,0 0.0533,0.0741 -0.0821,0.16476 -0.13539,0.0906 -0.32003,0.16475 -0.41029,0.16475 -0.0903,0 -0.0533,-0.0741 0.0821,-0.16475 z m -17.06834,-0.4249 c -0.22566,-0.13359 -0.33644,-0.24289 -0.24618,-0.24289 0.0903,0 0.34875,0.1093 0.57442,0.24289 0.22566,0.13359 0.33644,0.24289 0.24617,0.24289 -0.0903,0 -0.34875,-0.1093 -0.57441,-0.24289 z m 17.88893,0.085 c 0.1354,-0.0906 0.32003,-0.16475 0.4103,-0.16475 0.0903,0 0.0533,0.0741 -0.0821,0.16475 -0.1354,0.0906 -0.32003,0.16475 -0.4103,0.16475 -0.0903,0 -0.0533,-0.0741 0.0821,-0.16475 z m -30.98033,-0.97725 c -0.42489,-0.63547 -0.56301,-0.89228 -0.47988,-0.89228 0.0385,0 0.26543,0.30592 0.50437,0.67983 0.48561,0.75992 0.46442,0.94368 -0.0245,0.21245 z m 44.35785,0.0634 c 0.15514,-0.2452 0.31311,-0.44582 0.35103,-0.44582 0.11872,0 -0.26339,0.65501 -0.45285,0.77627 -0.0991,0.0634 -0.0533,-0.0853 0.10182,-0.33045 z m -33.2769,-0.20311 c -0.61355,-0.3447 -0.5762,-0.48827 0.041,-0.15773 0.27079,0.14502 0.49235,0.29994 0.49235,0.34428 0,0.10937 -0.0176,0.1032 -0.53338,-0.18655 z m 22.19704,0.0242 c 0,-0.0467 0.14771,-0.16684 0.32824,-0.2669 0.18053,-0.10005 0.32824,-0.14367 0.32824,-0.0969 0,0.0467 -0.14771,0.16684 -0.32824,0.2669 -0.18053,0.10005 -0.32824,0.14368 -0.32824,0.0969 z m -23.51292,-0.86788 c -0.33689,-0.23706 -0.61252,-0.46758 -0.61252,-0.51228 0,-0.0447 0.29542,0.12119 0.65648,0.36863 0.57329,0.39288 0.76705,0.57467 0.61251,0.57467 -0.0242,0 -0.31959,-0.19395 -0.65647,-0.43102 z m 24.33351,0.37824 c 0,-0.0396 0.31388,-0.28637 0.69751,-0.54838 0.38363,-0.26201 0.61086,-0.36777 0.50497,-0.23503 -0.20362,0.25525 -1.20248,0.906 -1.20248,0.78341 z m -35.03932,-0.96696 c -0.14004,-0.28043 -0.21768,-0.50987 -0.17255,-0.50987 0.0451,0 0.19663,0.22944 0.33667,0.50987 0.14003,0.28043 0.21768,0.50987 0.17254,0.50987 -0.0451,0 -0.19663,-0.22944 -0.33666,-0.50987 z m 46.28145,0 c 0.14003,-0.28043 0.29153,-0.50987 0.33667,-0.50987 0.0451,0 -0.0325,0.22944 -0.17255,0.50987 -0.14004,0.28043 -0.29154,0.50987 -0.33667,0.50987 -0.0451,0 0.0325,-0.22944 0.17255,-0.50987 z m -37.68121,-1.0845 c -0.6682,-0.59648 -1.54724,-1.45566 -1.95344,-1.90929 -0.40619,-0.45363 -0.14771,-0.24986 0.57442,0.45282 0.72212,0.70269 1.64529,1.56037 2.05148,1.90597 0.40619,0.34559 0.69441,0.62984 0.64049,0.63167 -0.0539,0.002 -0.64475,-0.4847 -1.31295,-1.08117 z m 28.57263,0.47072 c 0.40619,-0.35727 1.29842,-1.18749 1.98273,-1.84494 1.10775,-1.06428 1.08806,-1.03562 -0.1796,0.26135 -0.78309,0.80119 -1.67532,1.63141 -1.98273,1.84493 -0.38696,0.26878 -0.3317,0.18836 0.1796,-0.26134 z m -17.10937,0.33126 c 0.11283,-0.0471 0.29746,-0.0471 0.4103,0 0.11283,0.0471 0.0205,0.0857 -0.20515,0.0857 -0.22567,0 -0.31798,-0.0386 -0.20515,-0.0857 z m 0.9333,-4.30633 c 0,-2.47713 0.0229,-3.4905 0.051,-2.25193 0.028,1.23856 0.028,3.2653 0,4.50387 -0.028,1.23856 -0.051,0.22519 -0.051,-2.25194 z m 4.4312,0 c 0,-2.47713 0.0229,-3.4905 0.051,-2.25193 0.028,1.23856 0.028,3.2653 0,4.50387 -0.028,1.23856 -0.051,0.22519 -0.051,-2.25194 z m 0.54377,4.30633 c 0.11283,-0.0471 0.29746,-0.0471 0.4103,0 0.11283,0.0471 0.0205,0.0857 -0.20515,0.0857 -0.22567,0 -0.31798,-0.0386 -0.20515,-0.0857 z m -6.72886,-0.16995 c 0.11283,-0.0472 0.29746,-0.0472 0.41029,0 0.11283,0.0471 0.0205,0.0857 -0.20515,0.0857 -0.22566,0 -0.31798,-0.0386 -0.20514,-0.0857 z m 7.54945,0 c 0.11283,-0.0472 0.29747,-0.0472 0.4103,0 0.11283,0.0471 0.0205,0.0857 -0.20515,0.0857 -0.22566,0 -0.31798,-0.0386 -0.20515,-0.0857 z m -8.98549,-0.39732 c -0.30001,-0.20077 -0.0409,-0.20077 0.41029,0 0.21643,0.0963 0.24439,0.14925 0.0821,0.15541 -0.13539,0.005 -0.35695,-0.0648 -0.49235,-0.15541 z m 10.42153,0 c 0.45118,-0.20077 0.7103,-0.20077 0.4103,0 -0.1354,0.0906 -0.35696,0.16055 -0.49236,0.15541 -0.16232,-0.006 -0.13437,-0.0591 0.0821,-0.15541 z m -12.26787,-0.77598 c -0.42876,-0.23113 -0.77956,-0.4583 -0.77956,-0.50482 0,-0.0759 1.62473,0.71885 1.79163,0.87636 0.20319,0.19175 -0.33075,-0.004 -1.01207,-0.37154 z m 13.51244,0.37154 c 0.16741,-0.15799 1.79163,-0.9521 1.79163,-0.87596 0,0.0958 -1.56733,0.94049 -1.74515,0.94049 -0.0632,0 -0.0841,-0.029 -0.0465,-0.0645 z m -30.51308,-0.87752 c -0.27498,-0.62498 -0.22252,-0.75831 0.0748,-0.19014 0.13885,0.26533 0.22174,0.51421 0.18421,0.55308 -0.0375,0.0389 -0.1541,-0.12445 -0.25902,-0.36294 z m 48.23584,0.3472 c 0,-0.0935 0.10555,-0.36116 0.23455,-0.59485 0.129,-0.23369 0.23455,-0.34841 0.23455,-0.25494 0,0.0935 -0.10555,0.36116 -0.23455,0.59485 -0.129,0.23369 -0.23455,0.34841 -0.23455,0.25494 z m -32.59884,-0.68921 c -0.30592,-0.25381 -0.3039,-0.25695 0.0507,-0.079 0.2031,0.10193 0.36927,0.22087 0.36927,0.26432 0,0.13005 -0.0851,0.0925 -0.41996,-0.18532 z m 16.83182,0.1913 c 0,-0.0467 0.14771,-0.16685 0.32824,-0.2669 0.18053,-0.10005 0.32824,-0.14368 0.32824,-0.0969 0,0.0467 -0.14771,0.16684 -0.32824,0.2669 -0.18053,0.10005 -0.32824,0.14367 -0.32824,0.0969 z m -17.88893,-0.89614 c -0.78784,-0.62477 -1.98452,-1.75016 -1.86102,-1.75016 0.0556,0 0.40601,0.2868 0.77872,0.63734 0.37271,0.35053 0.93487,0.84407 1.24924,1.09674 0.31438,0.25267 0.53467,0.46214 0.48954,0.4655 -0.0451,0.003 -0.34055,-0.19889 -0.65648,-0.44942 z m 19.19906,0.003 c 0.31438,-0.26309 0.90521,-0.7816 1.31295,-1.15223 l 0.74136,-0.67387 -0.55059,0.61537 c -0.30283,0.33845 -0.89366,0.85695 -1.31295,1.15222 -0.64703,0.45564 -0.67589,0.46449 -0.19077,0.0585 z m -27.1744,-1.11569 -0.31265,-0.38241 0.36927,0.32377 c 0.2031,0.17807 0.36927,0.35015 0.36927,0.3824 0,0.13601 -0.13208,0.0356 -0.42589,-0.32376 z m 35.13698,0.0425 c 0.16337,-0.18696 0.33397,-0.33992 0.37911,-0.33992 0.0451,0 -0.0516,0.15296 -0.215,0.33992 -0.16337,0.18695 -0.33397,0.33991 -0.37911,0.33991 -0.0451,0 0.0516,-0.15296 0.215,-0.33991 z m -42.57583,-0.43906 c 0.008,-0.19799 0.0468,-0.23826 0.0992,-0.10268 0.0474,0.12269 0.0416,0.26927 -0.013,0.32575 -0.0545,0.0565 -0.0933,-0.0439 -0.0862,-0.22307 z m 50.05618,0 c 0.008,-0.19799 0.0468,-0.23826 0.0992,-0.10268 0.0474,0.12269 0.0416,0.26927 -0.013,0.32575 -0.0545,0.0565 -0.0933,-0.0439 -0.0862,-0.22307 z m -43.19709,-0.36824 c -0.20414,-0.26956 -0.19834,-0.27557 0.062,-0.0642 0.27338,0.22203 0.36031,0.36159 0.22524,0.36159 -0.0341,0 -0.16332,-0.13384 -0.28721,-0.29742 z m 36.12703,0.23326 c 0,-0.0353 0.12925,-0.16914 0.28721,-0.29743 0.2603,-0.2114 0.26611,-0.20539 0.062,0.0642 -0.2144,0.28311 -0.34917,0.37314 -0.34917,0.23326 z m -43.13728,-0.61566 c 0,-0.2337 0.0373,-0.3293 0.0828,-0.21245 0.0455,0.11684 0.0455,0.30805 0,0.42489 -0.0455,0.11685 -0.0828,0.0212 -0.0828,-0.21244 z m 37.71191,-0.59486 c 1.22661,-1.41312 1.46422,-1.64449 0.87268,-0.84978 -0.27832,0.3739 -0.78769,0.94751 -1.13193,1.27468 -0.40955,0.38923 -0.31994,0.24236 0.25925,-0.4249 z m 12.67251,0.59486 c 0,-0.2337 0.0373,-0.3293 0.0828,-0.21245 0.0455,0.11684 0.0455,0.30805 0,0.42489 -0.0455,0.11685 -0.0828,0.0212 -0.0828,-0.21244 z m -37.70362,-0.55237 c -0.69552,-0.76672 -1.46486,-1.74691 -1.03383,-1.31717 0.49626,0.49479 1.82884,2.03949 1.75941,2.03949 -0.0387,0 -0.3652,-0.32504 -0.72558,-0.72232 z m -6.268,0.085 c -0.42489,-0.63547 -0.56301,-0.89227 -0.47988,-0.89227 0.0385,0 0.26543,0.30592 0.50437,0.67983 0.48561,0.75991 0.46443,0.94368 -0.0245,0.21244 z m 37.62104,-0.16995 c 0.253,-0.39728 0.4913,-0.72232 0.52954,-0.72232 0.11838,0 -0.51002,1.03439 -0.7565,1.24525 -0.12818,0.10966 -0.026,-0.12566 0.22696,-0.52293 z m -44.1858,-0.38241 c 0,-0.32717 0.0338,-0.46101 0.0751,-0.29742 0.0413,0.16358 0.0413,0.43126 0,0.59485 -0.0413,0.16358 -0.0751,0.0297 -0.0751,-0.29743 z m 50.71266,0 c 0,-0.32717 0.0338,-0.46101 0.0751,-0.29742 0.0413,0.16358 0.0413,0.43126 0,0.59485 -0.0413,0.16358 -0.0751,0.0297 -0.0751,-0.29743 z m -45.00081,-0.83861 c -0.0934,-0.18081 -0.16989,-0.37201 -0.16989,-0.4249 0,-0.0529 1.38475,-0.0789 3.07722,-0.0577 l 3.07723,0.0384 -2.99895,0.0504 c -2.92952,0.0493 -2.99493,0.0582 -2.82527,0.38648 0.0955,0.18484 0.13675,0.33607 0.0916,0.33607 -0.0451,0 -0.15851,-0.14793 -0.25195,-0.32874 z m 39.21331,0.0352 0.17696,-0.37855 -2.99895,-0.0504 -2.99895,-0.0504 3.07722,-0.0384 c 1.69248,-0.0211 3.07723,0.0235 3.07723,0.0991 0,0.0756 -0.11486,0.28593 -0.25524,0.46738 -0.24558,0.31744 -0.24854,0.3156 -0.0783,-0.0486 z m -45.08928,-1.06608 c 0,-0.32717 0.0338,-0.46101 0.0751,-0.29742 0.0413,0.16358 0.0413,0.43126 0,0.59485 -0.0413,0.16358 -0.0751,0.0297 -0.0751,-0.29743 z m 51.02873,0 c 0,-0.23369 0.0373,-0.32929 0.0828,-0.21245 0.0455,0.11685 0.0455,0.30805 0,0.4249 -0.0455,0.11684 -0.0828,0.0212 -0.0828,-0.21245 z m -0.15195,-1.52962 c 0,-0.32716 0.0338,-0.461 0.0751,-0.29742 0.0413,0.16358 0.0413,0.43127 0,0.59485 -0.0413,0.16358 -0.0751,0.0297 -0.0751,-0.29743 z m -50.71874,-0.085 c 0.003,-0.28043 0.0401,-0.37458 0.0817,-0.20922 0.0416,0.16537 0.0389,0.39481 -0.006,0.50988 -0.045,0.11506 -0.079,-0.0202 -0.0757,-0.30066 z m 22.97661,0 c 0.003,-0.28043 0.0401,-0.37458 0.0817,-0.20922 0.0416,0.16537 0.0389,0.39481 -0.006,0.50988 -0.045,0.11506 -0.079,-0.0202 -0.0757,-0.30066 z m 4.75944,0 c 0.003,-0.28043 0.0401,-0.37458 0.0817,-0.20922 0.0416,0.16537 0.0389,0.39481 -0.006,0.50988 -0.045,0.11506 -0.079,-0.0202 -0.0756,-0.30066 z m -27.57801,-0.93477 c 0,-0.23369 0.0373,-0.32929 0.0828,-0.21245 0.0455,0.11685 0.0455,0.30805 0,0.4249 -0.0455,0.11684 -0.0828,0.0212 -0.0828,-0.21245 z m 50.38442,0 c 0,-0.23369 0.0373,-0.32929 0.0828,-0.21245 0.0455,0.11685 0.0455,0.30805 0,0.4249 -0.0455,0.11684 -0.0828,0.0212 -0.0828,-0.21245 z m -27.74901,-0.0991 c 0.008,-0.19799 0.0468,-0.23826 0.0992,-0.10268 0.0474,0.12268 0.0416,0.26927 -0.013,0.32575 -0.0545,0.0565 -0.0933,-0.0439 -0.0862,-0.22307 z m 5.08768,0 c 0.008,-0.19799 0.0468,-0.23826 0.0991,-0.10268 0.0474,0.12268 0.0416,0.26927 -0.0129,0.32575 -0.0545,0.0565 -0.0933,-0.0439 -0.0862,-0.22307 z m -26.92841,-2.38941 c 0,-0.0912 0.11485,-0.31426 0.25523,-0.49571 0.24066,-0.31107 0.24408,-0.30565 0.0598,0.095 -0.23926,0.52024 -0.31506,0.61666 -0.31506,0.40072 z m 48.52912,-0.48784 c -0.15011,-0.32599 -0.2391,-0.59271 -0.19775,-0.59271 0.1123,0 0.61051,1.04063 0.53543,1.11838 -0.0356,0.0369 -0.18756,-0.19967 -0.33768,-0.52567 z m -28.42665,-1.13629 c -0.67782,-1.06069 -1.79297,-2.23845 -2.79854,-2.95565 -0.99707,-0.71114 -1.16691,-0.92803 -0.36169,-0.46189 0.68655,0.39744 3.07499,2.87085 3.45878,3.58183 0.42071,0.77938 0.24145,0.68073 -0.29855,-0.16429 z m 8.40599,0.20677 c 0.38086,-0.76564 2.75834,-3.22769 3.49768,-3.62211 0.54948,-0.29313 0.55575,-0.29313 0.16339,0 -1.54601,1.15505 -2.5457,2.19031 -3.66107,3.79133 -0.28307,0.40631 -0.28307,0.39982 0,-0.16922 z m -27.23484,-0.76792 c 0.18812,-0.28043 0.77054,-0.93051 1.29427,-1.44463 0.90716,-0.89051 0.89848,-0.87442 -0.18336,0.33991 -1.51627,1.70196 -1.50207,1.68783 -1.11091,1.10472 z m 45.34599,-0.98657 c -1.0678,-1.21812 -1.10223,-1.27558 -0.27444,-0.45806 0.80805,0.79801 1.7169,1.89044 1.54761,1.8602 -0.0287,-0.005 -0.60164,-0.63609 -1.27317,-1.40214 z m -42.89853,-1.4914 c 0.20362,-0.25525 1.20248,-0.906 1.20248,-0.78341 0,0.0396 -0.31388,0.28637 -0.69751,0.54838 -0.38362,0.26201 -0.61086,0.36777 -0.50497,0.23503 z m 40.95255,-0.22929 c -0.76232,-0.55818 -0.8696,-0.71772 -0.2259,-0.33591 0.30031,0.17812 0.62323,0.41946 0.7176,0.5363 0.24255,0.30029 0.12872,0.2539 -0.4917,-0.20039 z m -29.08236,-0.77686 c -0.31593,-0.17912 -0.51536,-0.32887 -0.44318,-0.33279 0.17392,-0.009 1.09965,0.48901 1.09965,0.59209 0,0.11124 -0.01,0.10744 -0.65647,-0.2593 z m 17.06833,0.25655 c 0,-0.1163 1.00489,-0.63223 1.07997,-0.55448 0.0356,0.0369 -0.19282,0.19424 -0.50761,0.3497 -0.3148,0.15545 -0.57236,0.2476 -0.57236,0.20478 z m -26.75133,-0.59647 c 0.1354,-0.0906 0.32003,-0.16475 0.41029,-0.16475 0.0903,0 0.0533,0.0741 -0.0821,0.16475 -0.1354,0.0906 -0.32004,0.16476 -0.4103,0.16476 -0.0903,0 -0.0533,-0.0741 0.0821,-0.16476 z m 36.76257,0 c -0.1354,-0.0906 -0.17232,-0.16475 -0.0821,-0.16475 0.0903,0 0.2749,0.0741 0.4103,0.16475 0.1354,0.0906 0.17232,0.16476 0.0821,0.16476 -0.0903,0 -0.2749,-0.0741 -0.4103,-0.16476 z m -28.2284,-0.16995 c -0.1354,-0.0906 -0.17233,-0.16476 -0.0821,-0.16476 0.0903,0 0.2749,0.0741 0.41029,0.16476 0.1354,0.0906 0.17233,0.16475 0.0821,0.16475 -0.0903,0 -0.2749,-0.0741 -0.41029,-0.16475 z m 19.69423,0 c 0.1354,-0.0906 0.32003,-0.16476 0.4103,-0.16476 0.0903,0 0.0533,0.0741 -0.0821,0.16476 -0.1354,0.0906 -0.32003,0.16475 -0.4103,0.16475 -0.0903,0 -0.0533,-0.0741 0.0821,-0.16475 z m -20.38148,-0.28606 c 0.11847,-0.0491 0.26003,-0.0431 0.31456,0.0134 0.0545,0.0565 -0.0424,0.0966 -0.21541,0.0893 -0.19118,-0.008 -0.23007,-0.0484 -0.0992,-0.10268 z m 21.1713,0 c 0.11848,-0.0491 0.26003,-0.0431 0.31456,0.0134 0.0545,0.0565 -0.0424,0.0966 -0.2154,0.0893 -0.19119,-0.008 -0.23008,-0.0484 -0.0992,-0.10268 z m -27.24369,-0.16996 c 0.11847,-0.0491 0.26003,-0.0431 0.31456,0.0134 0.0545,0.0565 -0.0424,0.0966 -0.2154,0.0893 -0.19119,-0.008 -0.23008,-0.0484 -0.0992,-0.10268 z m 5.41592,0 c 0.11847,-0.0491 0.26002,-0.0431 0.31456,0.0134 0.0545,0.0565 -0.0424,0.0966 -0.21541,0.0893 -0.19119,-0.008 -0.23008,-0.0484 -0.0991,-0.10268 z m 22.48425,0 c 0.11847,-0.0491 0.26002,-0.0431 0.31456,0.0134 0.0545,0.0565 -0.0424,0.0966 -0.21541,0.0893 -0.19119,-0.008 -0.23008,-0.0484 -0.0991,-0.10268 z m 5.41591,0 c 0.11847,-0.0491 0.26003,-0.0431 0.31456,0.0134 0.0545,0.0565 -0.0424,0.0966 -0.2154,0.0893 -0.19119,-0.008 -0.23008,-0.0484 -0.0992,-0.10268 z m -32.58468,-0.17163 c 0.15968,-0.0431 0.38124,-0.0403 0.49236,0.006 0.11111,0.0466 -0.0195,0.0818 -0.29033,0.0784 -0.2708,-0.003 -0.36171,-0.0416 -0.20203,-0.0846 z m 3.85366,0.005 c 0.11284,-0.0472 0.29747,-0.0472 0.4103,0 0.11283,0.0471 0.0205,0.0857 -0.20515,0.0857 -0.22566,0 -0.31798,-0.0386 -0.20515,-0.0857 z m 23.96132,0 c 0.11284,-0.0472 0.29747,-0.0472 0.4103,0 0.11283,0.0471 0.0205,0.0857 -0.20515,0.0857 -0.22566,0 -0.31798,-0.0386 -0.20515,-0.0857 z m 3.85992,-0.005 c 0.15968,-0.0431 0.38124,-0.0403 0.49235,0.006 0.11111,0.0466 -0.0195,0.0818 -0.29033,0.0784 -0.2708,-0.003 -0.36171,-0.0416 -0.20202,-0.0846 z m -30.20096,-0.17599 c 0.3385,-0.0367 0.8924,-0.0367 1.23089,0 0.3385,0.0367 0.0615,0.0667 -0.61544,0.0667 -0.67699,0 -0.95394,-0.03 -0.61545,-0.0667 z m 27.90017,0 c 0.3385,-0.0367 0.8924,-0.0367 1.23089,0 0.3385,0.0367 0.0615,0.0667 -0.61544,0.0667 -0.67699,0 -0.95394,-0.03 -0.61545,-0.0667 z"
         id="path17" /><path
         style="fill:#c10533"
         d="m 67.911673,196.23462 v -31.61207 h 46.406297 46.40629 l 1.14708,0.79919 c 0.63089,0.43955 2.57126,1.73802 4.31193,2.8855 l 3.16486,2.08631 2.90753,-1.91912 c 1.59914,-1.05551 3.53463,-2.35399 4.30108,-2.8855 l 1.39355,-0.96638 h 46.406 46.406 v 31.61207 31.61206 H 169.33698 67.911673 Z m 74.820257,15.57619 c 2.40316,-0.47568 3.82647,-0.94597 5.59787,-1.84967 1.46424,-0.747 1.93542,-1.09744 3.13488,-2.33158 2.05445,-2.11384 2.93751,-4.21094 2.93751,-6.97605 0,-3.76333 -2.01829,-6.72164 -6.00643,-8.80394 -2.14675,-1.12087 -4.28741,-1.59377 -9.01043,-1.99055 -3.70988,-0.31167 -4.84948,-0.51801 -5.54947,-1.0048 -1.00207,-0.69686 -0.67362,-1.68847 0.70049,-2.11481 2.25012,-0.69814 7.7699,-0.70123 13.92686,-0.008 0.93089,0.10485 1.7305,0.15131 1.7769,0.10326 0.10169,-0.10531 2.52089,-6.1045 2.52089,-6.25136 0,-0.17994 -3.86697,-0.49206 -8.64855,-0.69808 -5.02235,-0.21639 -9.54784,-0.0526 -12.82179,0.46394 -6.23914,0.98443 -10.00657,3.65856 -10.94183,7.76653 -0.3025,1.32867 -0.31456,3.85008 -0.0238,4.9745 0.72345,2.79763 2.61254,4.9559 5.76669,6.58841 2.4494,1.26775 4.81718,1.81351 9.76505,2.25078 3.46451,0.30619 4.14839,0.45507 4.69625,1.02243 0.85474,0.88514 0.17411,1.91383 -1.53532,2.32042 -1.36104,0.32373 -8.36788,0.26703 -12.10539,-0.0979 -1.62478,-0.15866 -3.44062,-0.33307 -4.03522,-0.38758 l -1.08108,-0.0991 -0.70125,1.80688 c -0.38568,0.99379 -0.74869,1.80689 -0.80668,1.80689 -0.058,0 -2.54241,-6.25231 -5.52095,-13.89402 l -5.41551,-13.89401 -7.48697,-0.0442 c -5.863323,-0.0346 -7.524083,0.002 -7.658091,0.16996 -0.185438,0.23207 -12.016575,30.50765 -12.016575,30.75011 0,0.0809 1.85727,0.12674 4.127268,0.10176 l 4.127268,-0.0454 0.81768,-2.25194 0.81768,-2.25193 h 6.343917 6.343913 l 0.81011,2.2715 0.81012,2.27151 8.78511,0.11206 c 4.83182,0.0616 10.5576,0.21795 12.72397,0.34735 5.18831,0.30992 12.94735,0.24007 14.8349,-0.13354 z M 94.047973,201.4608 c 3.244329,-9.00309 4.30875,-11.83569 4.407796,-11.7299 0.0671,0.0717 1.00735,2.5777 2.089441,5.56895 1.08209,2.99125 2.04578,5.64896 2.14152,5.90602 l 0.17409,0.46738 h -4.444704 c -3.487177,0 -4.428207,-0.0458 -4.368143,-0.21245 z m 82.459167,-2.24863 -0.1048,-12.3186 3.55683,-0.0458 3.55684,-0.0458 1.18234,-3.05923 c 0.65028,-1.68258 1.14831,-3.11659 1.10673,-3.1867 -0.0416,-0.0701 -6.89364,-0.12747 -15.2268,-0.12747 -11.92166,0 -15.18711,0.0453 -15.31971,0.21245 -0.14366,0.18111 -2.49757,6.0099 -2.49757,6.18453 0,0.0338 2.13709,0.0614 4.7491,0.0614 h 4.74909 l -0.0979,12.32191 -0.0979,12.32191 h 7.27433 7.27433 z m 23.52003,-0.0236 v -12.34218 l 1.51809,0.0738 c 1.74995,0.0851 2.5414,0.41824 3.4005,1.43151 0.83811,0.9885 1.05532,1.66674 1.05495,3.29405 -2.8e-4,1.18819 -0.0744,1.61057 -0.4174,2.3794 -0.70717,1.58499 -2.00612,2.59465 -3.63564,2.82594 -0.42442,0.0602 -0.76759,0.19474 -0.76259,0.29888 0.005,0.10414 1.06367,3.3633 2.3526,7.24258 l 2.34351,7.05323 9.84766,0.0438 9.84766,0.0438 0.80943,-2.25325 0.80943,-2.25325 h 6.37733 6.37733 l 0.77853,2.20944 0.77852,2.20945 7.48844,0.0442 c 4.11865,0.0243 7.48845,-0.0215 7.48845,-0.10176 0,-0.24052 -11.83127,-30.51701 -12.01521,-30.74721 -0.13125,-0.16426 -1.86097,-0.21245 -7.62609,-0.21245 h -7.45633 l -0.37398,0.89228 c -0.20568,0.49075 -2.5798,6.56449 -5.27581,13.49719 l -4.90184,12.60492 -2.26461,-5.09578 c -1.24554,-2.80268 -2.26263,-5.14798 -2.2602,-5.21177 0.002,-0.0638 0.31214,-0.3072 0.68825,-0.54089 0.97168,-0.60375 2.78205,-2.48686 3.32946,-3.46325 0.98352,-1.75424 1.33159,-4.40946 0.83254,-6.35078 -0.76217,-2.96481 -2.97345,-5.11826 -6.10415,-5.94448 -1.0291,-0.2716 -2.261,-0.29847 -13.76737,-0.30037 l -12.63713,-0.002 -0.0419,15.50861 -0.0419,15.50861 h 6.72973 6.72973 z m 31.31018,-3.6475 2.22215,-6.13216 2.08863,5.76684 c 1.14875,3.17177 2.13901,5.93124 2.20059,6.13216 l 0.11197,0.36531 h -4.42274 -4.42275 z m -62.98508,-33.76829 c -0.49646,-0.34042 -2.31566,-1.58701 -4.04268,-2.77021 -5.53421,-3.79156 -9.5129,-7.04537 -12.80136,-10.46905 -3.8387,-3.99655 -6.14681,-7.73792 -7.14952,-11.58916 -0.45274,-1.73888 -0.49554,-4.90579 -0.0876,-6.48326 1.00848,-3.89997 3.93267,-7.16583 7.52142,-8.40023 6.08265,-2.09223 12.65501,1.39396 14.70842,7.80179 0.42696,1.33237 0.43834,1.48006 0.50219,6.52069 0.0626,4.94381 0.0528,5.15363 -0.23644,5.06529 -0.16597,-0.0507 -0.59718,-0.14607 -0.95824,-0.21197 -1.84883,-0.33743 -4.55439,-1.63644 -6.28968,-3.01983 -1.09446,-0.87251 -2.78664,-2.61366 -3.52697,-3.62902 l -0.52282,-0.71707 -2.99517,-0.005 c -1.64734,-0.003 -2.99516,0.0436 -2.99516,0.10341 0,0.23044 1.07294,1.90659 2.06476,3.22557 6.40774,8.52142 18.00985,11.34404 27.462,6.68109 3.22737,-1.59213 6.03368,-3.89967 8.12518,-6.68109 0.99182,-1.31898 2.06477,-2.99513 2.06477,-3.22557 0,-0.0598 -1.34783,-0.10588 -2.99517,-0.10247 l -2.99516,0.006 -0.45916,0.63115 c -0.70822,0.97349 -2.557,2.88411 -3.59063,3.71072 -1.72889,1.38263 -4.43757,2.68414 -6.28969,3.02217 -0.36106,0.0659 -0.79227,0.16129 -0.95824,0.21197 -0.28927,0.0883 -0.29906,-0.12148 -0.23643,-5.06529 0.0639,-5.04063 0.0752,-5.18832 0.50218,-6.52069 2.05341,-6.40783 8.62577,-9.89402 14.70842,-7.80179 3.59045,1.23499 6.52732,4.51675 7.51741,8.40023 0.40665,1.59506 0.36629,4.76456 -0.0826,6.48326 -1.93991,7.42798 -8.79683,14.69585 -22.40194,23.74455 -1.4258,0.94829 -2.60746,1.71936 -2.6259,1.71348 -0.0184,-0.006 -0.43973,-0.2892 -0.93619,-0.62961 z"
         id="path16" /><path
         style="fill:#020101"
         d="m 165.08893,164.86462 c -2.2913,-1.53828 -5.02387,-3.42221 -6.07239,-4.18651 -12.61463,-9.19522 -18.5275,-16.99346 -19.38807,-25.57013 -0.80372,-8.01004 4.1994,-15.45355 11.81967,-17.58497 2.02436,-0.56623 5.8675,-0.57065 7.86664,-0.009 2.61044,0.73333 4.80005,2.00612 6.82383,3.96662 l 1.06483,1.03153 v -6.05297 -6.05297 h -5.82621 -5.82621 v -1.68954 c 0,-0.92925 0.0588,-1.72719 0.1307,-1.7732 0.16951,-0.10848 4.55044,-1.0519 6.03033,-1.2986 1.16132,-0.1936 4.91218,-0.67312 5.28624,-0.67582 0.13571,-9.7e-4 0.20515,-0.28035 0.20515,-0.82541 v -0.82395 l -1.20226,-0.61532 c -2.22884,-1.14074 -3.83483,-3.388081 -4.24269,-5.936993 -0.3812,-2.382328 0.45004,-4.982586 2.15836,-6.751678 4.4376,-4.595478 11.96002,-2.057176 12.98693,4.382202 0.53145,3.332524 -1.21612,6.763429 -4.231,8.306469 l -1.20226,0.61532 v 0.80726 0.80725 l 1.02575,0.11098 c 2.8798,0.31158 6.81224,0.9815 9.31373,1.58667 l 1.23089,0.29778 0.0468,1.73829 0.0468,1.73829 h -5.83195 -5.83196 v 6.05297 6.05297 l 1.06483,-1.03153 c 2.02379,-1.9605 4.2134,-3.23329 6.82384,-3.96662 1.99914,-0.56159 5.84227,-0.55717 7.86664,0.009 7.62026,2.13142 12.62338,9.57493 11.81967,17.58497 -0.86893,8.65996 -6.95626,16.61546 -19.77934,25.84953 -2.07294,1.49275 -9.8613,6.73891 -9.96769,6.71413 -0.024,-0.006 -1.91824,-1.26874 -4.20954,-2.80702 z m 8.44099,-5.14417 c 9.32965,-6.39074 14.7671,-11.35521 18.08572,-16.51252 3.12061,-4.8496 3.99577,-9.72908 2.5041,-13.96174 -1.8665,-5.29628 -7.21735,-8.6522 -12.45062,-7.8087 -2.72718,0.43957 -4.82102,1.54795 -6.77348,3.58557 -0.99448,1.03786 -1.40814,1.63589 -2.00949,2.90509 -1.23227,2.60087 -1.2898,2.96225 -1.37445,8.63438 l -0.0746,4.99669 0.90621,-0.1103 c 1.93963,-0.23608 4.48732,-1.36338 6.59457,-2.91798 0.94791,-0.6993 3.52695,-3.32434 4.05009,-4.12232 0.2496,-0.38073 0.29629,-0.38574 3.16872,-0.33992 l 2.91538,0.0465 -1.00289,1.55237 c -7.12199,11.02414 -21.80199,13.66163 -32.1464,5.77559 -2.19567,-1.67386 -4.77627,-4.6034 -5.9337,-6.73603 l -0.36737,-0.67691 2.9236,0.003 2.92361,0.003 0.36857,0.54602 c 0.61609,0.9127 2.85377,3.17971 3.89851,3.94961 2.11026,1.55511 4.65597,2.68124 6.59457,2.91719 l 0.90622,0.1103 -0.0746,-4.99669 c -0.0847,-5.67213 -0.14217,-6.03351 -1.37445,-8.63438 -1.27334,-2.68754 -3.83558,-5.00852 -6.56736,-5.949 -4.16077,-1.43243 -8.48302,-0.47636 -11.63722,2.57411 -3.45733,3.34363 -4.60621,8.25591 -3.09631,13.23894 2.08045,6.866 8.58925,13.75368 20.82916,22.04165 1.71504,1.16129 3.26596,2.21269 3.44649,2.33644 0.18053,0.12374 0.44258,0.229 0.58233,0.2339 0.13975,0.005 2.02301,-1.20278 4.18502,-2.68374 z m -2.30557,-61.088327 c 0.36106,-0.25208 0.8411,-0.740554 1.06677,-1.085497 0.34907,-0.533585 0.41029,-0.821082 0.41029,-1.926713 0,-1.130579 -0.0582,-1.390625 -0.44765,-2.000057 -1.36965,-2.143312 -4.45892,-2.151113 -5.82416,-0.01471 -0.50966,0.797549 -0.68886,2.304528 -0.38676,3.252459 0.2253,0.706977 1.06313,1.642388 1.83543,2.049214 0.85627,0.451059 2.49982,0.316131 3.34608,-0.274698 z"
         id="path15" /></g></g></svg>
